<svg width="164" height="164" viewBox="0 0 164 164" fill="none" xmlns="http://www.w3.org/2000/svg">
<path fill-rule="evenodd" clip-rule="evenodd" d="M29.1608 131.083L61.3785 98.8657L65.1339 102.621L32.9162 134.839L29.1608 131.083ZM9.92969 79.3441H55.4925V84.6558H9.92969V79.3441ZM32.9162 29.1607L65.1339 61.3784L61.3785 65.1338L29.1608 32.9161L32.9162 29.1607ZM84.6559 9.92957V55.4923H79.3442V9.92957H84.6559ZM134.839 32.9165L102.622 65.1342L98.8658 61.3787L131.084 29.1611L134.839 32.9165ZM154.07 84.6558H108.508V79.3441H154.07V84.6558ZM131.084 134.839L98.8658 102.621L102.621 98.866L134.839 131.084L131.084 134.839ZM79.3442 154.07V108.507H84.6559V154.07H79.3442Z" fill="#B4D2D7"/>
<path fill-rule="evenodd" clip-rule="evenodd" d="M29.6973 126.27C34.1336 126.27 37.73 129.867 37.73 134.303C37.73 138.739 34.1336 142.336 29.6973 142.336C25.261 142.336 21.6646 138.739 21.6646 134.303C21.6646 129.866 25.261 126.27 29.6973 126.27ZM82 0C86.4363 0 90.0327 3.59638 90.0327 8.03268C90.0327 12.469 86.4363 16.0654 82 16.0654C77.5637 16.0654 73.9673 12.469 73.9673 8.03268C73.9673 3.59638 77.5637 0 82 0ZM82 147.935C86.4363 147.935 90.0327 151.531 90.0327 155.967C90.0327 160.404 86.4363 164 82 164C77.5637 164 73.9673 160.404 73.9673 155.967C73.9673 151.531 77.5637 147.935 82 147.935ZM142.335 29.6973C142.335 34.1336 138.739 37.73 134.303 37.73C129.866 37.73 126.27 34.1336 126.27 29.6973C126.27 25.261 129.866 21.6646 134.303 21.6646C138.739 21.6646 142.335 25.261 142.335 29.6973ZM164 82C164 86.4363 160.404 90.0327 155.967 90.0327C151.531 90.0327 147.935 86.4363 147.935 82C147.935 77.5637 151.531 73.9673 155.967 73.9673C160.404 73.9673 164 77.5637 164 82ZM16.0654 82C16.0654 86.4363 12.469 90.0327 8.03268 90.0327C3.59638 90.0327 0 86.4363 0 82C0 77.5637 3.59638 73.9673 8.03268 73.9673C12.469 73.9673 16.0654 77.5637 16.0654 82ZM142.335 134.303C142.335 138.739 138.739 142.335 134.303 142.335C129.866 142.335 126.27 138.739 126.27 134.303C126.27 129.866 129.866 126.27 134.303 126.27C138.739 126.27 142.335 129.866 142.335 134.303ZM37.7296 29.6973C37.7296 34.1336 34.1332 37.73 29.6969 37.73C25.2606 37.73 21.6643 34.1336 21.6643 29.6973C21.6643 25.261 25.2606 21.6646 29.6969 21.6646C34.1336 21.6646 37.7296 25.261 37.7296 29.6973Z" fill="#64B5F6"/>
<path d="M118.061 118.079C137.987 98.1532 137.987 65.8468 118.061 45.9209C98.1348 25.995 65.8285 25.995 45.9026 45.9209C25.9766 65.8468 25.9766 98.1532 45.9026 118.079C65.8285 138.005 98.1348 138.005 118.061 118.079Z" fill="#E6F8FF"/>
<path fill-rule="evenodd" clip-rule="evenodd" d="M59.1651 101.012C49.3095 101.012 41.2456 92.948 41.2456 83.0924C41.2456 74.3377 47.6695 66.8033 56.307 65.4037C56.306 65.3267 56.3041 65.2503 56.3041 65.1729C56.3041 54.0598 65.3131 45.0504 76.4266 45.0504C83.1038 45.0504 89.0204 48.3035 92.6809 53.3108C94.4178 52.1237 96.5183 51.4292 98.7811 51.4292C104.76 51.4292 109.607 56.2761 109.607 62.2551C109.607 63.4519 109.413 64.6033 109.054 65.6792C116.891 67.5891 122.754 74.6886 122.754 83.0921C122.754 92.9477 114.691 101.011 104.835 101.011L59.1651 101.012Z" fill="#64B5F6"/>
<path fill-rule="evenodd" clip-rule="evenodd" d="M56.5432 77.8699C55.5061 78.907 53.8246 78.907 52.7878 77.8699C51.7507 76.8328 51.7507 75.1513 52.7878 74.1145C60.8547 66.0476 71.4277 62.014 82.0001 62.014C92.5725 62.014 103.145 66.0476 111.212 74.1145C112.249 75.1516 112.249 76.8331 111.212 77.8699C110.175 78.907 108.494 78.907 107.457 77.8699C100.428 70.8405 91.214 67.3258 82.0001 67.3258C72.7862 67.3258 63.5727 70.8405 56.5432 77.8699ZM73.9282 101.011C73.9282 98.7826 74.8319 96.7644 76.2926 95.3037C77.7534 93.843 79.7715 92.9393 82.0001 92.9393C84.2287 92.9393 86.2468 93.843 87.7076 95.3037C89.1683 96.7644 90.072 98.7822 90.072 101.011C90.072 103.239 89.1683 105.258 87.7076 106.718C86.2468 108.179 84.2287 109.083 82.0001 109.083C79.7715 109.083 77.7534 108.179 76.2926 106.718C74.8319 105.258 73.9282 103.24 73.9282 101.011ZM80.048 99.0594C79.5487 99.5588 79.24 100.249 79.24 101.011C79.24 101.774 79.5491 102.464 80.048 102.963C80.5473 103.462 81.2375 103.771 81.9998 103.771C82.762 103.771 83.4525 103.462 83.9515 102.963C84.4508 102.464 84.7596 101.773 84.7596 101.011C84.7596 100.249 84.4505 99.5588 83.9515 99.0594C83.4522 98.5601 82.762 98.2511 81.9998 98.2511C81.2375 98.2511 80.5473 98.5601 80.048 99.0594ZM71.1217 92.4483C74.1254 89.4445 78.0628 87.9426 82.0001 87.9426C85.9374 87.9426 89.8748 89.4445 92.8785 92.4483C93.9157 93.4854 95.5972 93.4854 96.6339 92.4483C97.6711 91.4112 97.6711 89.7297 96.6339 88.6929C92.5927 84.6517 87.2962 82.6312 82.0001 82.6312C76.704 82.6312 71.4075 84.652 67.3663 88.6929C66.3291 89.73 66.3291 91.4115 67.3663 92.4483C68.403 93.4854 70.0845 93.4854 71.1217 92.4483ZM63.8326 85.1593C68.8492 80.1427 75.4245 77.6345 82.0001 77.6345C88.5757 77.6345 95.151 80.1427 100.168 85.1596C101.205 86.1967 102.886 86.1967 103.923 85.1596C104.96 84.1225 104.96 82.441 103.923 81.4039C97.8689 75.3495 89.9345 72.3225 82.0001 72.3225C74.0657 72.3225 66.1313 75.3495 60.0769 81.4036C59.0398 82.4407 59.0398 84.1222 60.0769 85.1593C61.114 86.1964 62.7955 86.1964 63.8326 85.1593Z" fill="#FFDA2D"/>
</svg>
