<svg width="164" height="164" viewBox="0 0 164 164" fill="none" xmlns="http://www.w3.org/2000/svg">
<path fill-rule="evenodd" clip-rule="evenodd" d="M11.8735 112.092L23.7539 157.555C26.6248 155.107 29.1915 153.133 31.5839 151.594C34.3893 149.676 37.239 148.352 40.2839 147.712C43.5121 146.992 46.7267 147.125 50.3617 147.979C50.3657 147.98 50.3693 147.981 50.3733 147.982L74.4874 153.65C79.9782 154.941 85.1388 154.442 90.0188 151.553L150.322 115.855C155.703 112.669 157.563 105.549 154.456 100.03C151.35 94.5127 144.405 92.6044 139.024 95.79L97.0288 120.65C97.0603 120.542 97.0909 120.433 97.1198 120.324C98.9227 113.533 94.9665 106.442 88.3434 104.593L46.2445 92.8438C40.6568 92.0851 35.5838 93.4728 31.109 96.9872L11.8735 112.092Z" fill="#FFD6BD"/>
<path fill-rule="evenodd" clip-rule="evenodd" d="M83.262 123.649C88.9599 125.237 94.8568 122.472 97.55 117.354C97.5224 118.339 97.3826 119.334 97.1199 120.324C95.3144 127.124 88.4103 131.178 81.7792 129.323C73.5846 127.029 65.3781 124.817 57.1719 122.562C55.6443 122.142 54.7298 120.518 55.1389 118.952C55.548 117.386 57.1324 116.448 58.66 116.868C66.8499 119.117 75.0319 121.356 83.262 123.649Z" fill="#F9C6AA"/>
<path fill-rule="evenodd" clip-rule="evenodd" d="M14.908 102.462L29.4304 158.036C29.7848 159.392 28.9934 160.798 27.6714 161.161L17.6543 163.913C16.3323 164.277 14.9614 163.465 14.6071 162.109L0.0846195 106.535C-0.269717 105.179 0.521645 103.773 1.84368 103.41L11.8607 100.658C13.1828 100.294 14.5536 101.106 14.908 102.462Z" fill="#64B5F6"/>
<path d="M88.836 32.0269C97.4611 32.0269 104.453 24.8574 104.453 16.0135C104.453 7.16947 97.4611 0 88.836 0C80.211 0 73.219 7.16947 73.219 16.0135C73.219 24.8574 80.211 32.0269 88.836 32.0269Z" fill="#FFD6BD"/>
<path fill-rule="evenodd" clip-rule="evenodd" d="M117.678 63.255C116.76 47.7915 104.137 35.4321 88.836 35.4321C73.5348 35.4321 60.9118 47.7915 59.9939 63.255C59.9651 63.7413 60.1168 64.1703 60.4423 64.5252C60.7677 64.88 61.1765 65.0611 61.6517 65.0611H116.021C116.495 65.0611 116.905 64.88 117.23 64.5252C117.555 64.1703 117.707 63.7409 117.678 63.255Z" fill="#FFDA2D"/>
<path d="M46.7091 48.1521C55.1963 46.5778 60.832 38.2469 59.2968 29.5444C57.7615 20.8419 49.6367 15.0633 41.1495 16.6376C32.6622 18.2118 27.0266 26.5428 28.5618 35.2453C30.0971 43.9478 38.2219 49.7263 46.7091 48.1521Z" fill="#FFD6BD"/>
<path fill-rule="evenodd" clip-rule="evenodd" d="M72.785 79.6145C71.8667 64.151 59.2441 51.7916 43.9429 51.7916C28.6417 51.7916 16.0191 64.151 15.1009 79.6145C15.072 80.1008 15.2238 80.5298 15.5492 80.8847C15.8746 81.2395 16.2834 81.4206 16.7587 81.4206H71.1275C71.6024 81.4206 72.0115 81.2395 72.337 80.8847C72.6621 80.5298 72.8139 80.1004 72.785 79.6145Z" fill="#72D561"/>
<path d="M146.177 43.7053C152.275 37.4526 152.275 27.315 146.177 21.0623C140.08 14.8096 130.193 14.8096 124.095 21.0623C117.997 27.315 117.997 37.4526 124.095 43.7053C130.193 49.958 140.08 49.958 146.177 43.7053Z" fill="#FFD6BD"/>
<path fill-rule="evenodd" clip-rule="evenodd" d="M163.997 79.6142C163.078 64.1506 150.456 51.7913 135.155 51.7913C119.853 51.7913 107.23 64.1506 106.313 79.6142C106.284 80.1004 106.435 80.5295 106.761 80.8843C107.086 81.2391 107.495 81.4203 107.97 81.4203H162.339C162.814 81.4203 163.223 81.2391 163.549 80.8843C163.874 80.5295 164.026 80.1001 163.997 79.6142Z" fill="#FC685B"/>
</svg>
