<svg width="164" height="154" viewBox="0 0 164 154" fill="none" xmlns="http://www.w3.org/2000/svg">
<path fill-rule="evenodd" clip-rule="evenodd" d="M116.683 143.312H32.5545C29.2784 143.312 26.6064 140.519 26.6064 137.093V46.2674C26.6064 44.5547 27.1903 43.0808 28.3489 41.8698L55.7051 13.2669C56.8634 12.0559 58.2731 11.4454 59.9111 11.4454H116.684C119.96 11.4454 122.632 14.2391 122.632 17.6645V137.094C122.632 140.518 119.96 143.312 116.683 143.312Z" fill="#E2E3E3"/>
<path fill-rule="evenodd" clip-rule="evenodd" d="M105.737 131.867H21.6083C18.3322 131.867 15.6599 129.073 15.6599 125.648V34.822C15.6599 33.1093 16.2438 31.6354 17.402 30.4244L44.7583 1.82147C45.9165 0.610483 47.3262 0 48.9643 0H105.737C109.013 0 111.685 2.79368 111.685 6.21907V125.648C111.685 129.073 109.013 131.867 105.737 131.867Z" fill="#EFF4F7"/>
<path fill-rule="evenodd" clip-rule="evenodd" d="M44.7584 1.82113L17.4022 30.424C16.8731 30.9772 16.464 31.5852 16.1753 32.2455H41.1299C44.0875 32.2455 46.5005 29.7231 46.5005 26.6302V0.538696C45.869 0.840237 45.2875 1.26793 44.7584 1.82113Z" fill="#E2E3E3"/>
<path fill-rule="evenodd" clip-rule="evenodd" d="M26.6889 119.426C25.3291 119.426 24.2266 118.273 24.2266 116.851C24.2266 115.429 25.3291 114.276 26.6889 114.276H100.656C102.016 114.276 103.118 115.429 103.118 116.851C103.118 118.273 102.016 119.426 100.656 119.426H26.6889ZM58.8695 17.5901C57.5097 17.5901 56.4072 16.4373 56.4072 15.0156C56.4072 13.5938 57.5097 12.441 58.8695 12.441H100.656C102.016 12.441 103.118 13.5938 103.118 15.0156C103.118 16.4373 102.016 17.5901 100.656 17.5901H58.8695ZM58.8698 32.1377C57.51 32.1377 56.4075 30.985 56.4075 29.5632C56.4075 28.1414 57.51 26.9887 58.8698 26.9887H100.656C102.016 26.9887 103.119 28.1414 103.119 29.5632C103.119 30.985 102.016 32.1377 100.656 32.1377H58.8698ZM26.6889 75.7816C25.3291 75.7816 24.2266 74.6289 24.2266 73.2071C24.2266 71.7853 25.3291 70.6326 26.6889 70.6326H100.656C102.016 70.6326 103.119 71.7853 103.119 73.2071C103.119 74.6289 102.016 75.7816 100.656 75.7816H26.6889ZM26.6889 61.234C25.3291 61.234 24.2266 60.0812 24.2266 58.6595C24.2266 57.2377 25.3291 56.0849 26.6889 56.0849H100.656C102.016 56.0849 103.119 57.2377 103.119 58.6595C103.119 60.0812 102.016 61.234 100.656 61.234H26.6889ZM26.6889 46.686C25.3291 46.686 24.2266 45.5333 24.2266 44.1115C24.2266 42.6897 25.3291 41.537 26.6889 41.537H100.656C102.016 41.537 103.118 42.6897 103.118 44.1115C103.118 45.5333 102.016 46.686 100.656 46.686H26.6889ZM26.6889 90.3299C25.3291 90.3299 24.2266 89.1772 24.2266 87.7554C24.2266 86.3336 25.3291 85.1809 26.6889 85.1809H100.656C102.016 85.1809 103.119 86.3336 103.119 87.7554C103.119 89.1772 102.016 90.3299 100.656 90.3299H26.6889ZM26.6889 104.878C25.3291 104.878 24.2266 103.725 24.2266 102.303C24.2266 100.881 25.3291 99.7285 26.6889 99.7285H100.656C102.016 99.7285 103.119 100.881 103.119 102.303C103.119 103.725 102.016 104.878 100.656 104.878H26.6889Z" fill="#8D9CA8"/>
<path fill-rule="evenodd" clip-rule="evenodd" d="M3.02837 97.6747H89.7153C91.3808 97.6747 92.7437 99.0994 92.7437 100.841V150.834C92.7437 152.575 91.3811 154 89.7153 154H3.02837C1.3626 154 0 152.575 0 150.834V100.841C0 99.0994 1.3626 97.6747 3.02837 97.6747Z" fill="#3CBE52"/>
<path fill-rule="evenodd" clip-rule="evenodd" d="M18.9269 105.986H73.8165C73.8165 112.325 78.7313 117.464 84.7942 117.464V134.21C78.7313 134.21 73.8165 139.349 73.8165 145.688H18.9269C18.9269 139.349 14.0121 134.21 7.94922 134.21V117.464C14.0121 117.464 18.9269 112.325 18.9269 105.986Z" fill="#72D561"/>
<path fill-rule="evenodd" clip-rule="evenodd" d="M52.0672 118.279C52.8641 119.428 52.6184 121.036 51.519 121.869C50.4196 122.702 48.8821 122.445 48.0853 121.296C47.9652 121.122 47.8178 120.985 47.6565 120.898C47.5051 120.817 47.321 120.771 47.1136 120.771H45.9633C45.6383 120.771 45.3407 120.912 45.1237 121.139C44.9067 121.365 44.7716 121.677 44.7716 122.016C44.7716 122.356 44.9064 122.667 45.1237 122.894C45.3407 123.121 45.6383 123.262 45.9633 123.262H46.7802C48.4648 123.262 49.9945 123.981 51.1019 125.139C52.2094 126.297 52.8967 127.896 52.8967 129.657C52.8967 131.419 52.2094 133.018 51.1019 134.176C50.4679 134.839 49.695 135.358 48.8341 135.68V135.98C48.8341 137.402 47.7316 138.555 46.3718 138.555C45.012 138.555 43.9094 137.402 43.9094 135.98V135.786C43.545 135.672 43.1923 135.522 42.8556 135.342C41.9814 134.872 41.2341 134.202 40.6764 133.396C39.8795 132.246 40.1251 130.638 41.2246 129.805C42.3243 128.972 43.8614 129.229 44.6583 130.379C44.7783 130.552 44.9255 130.689 45.0871 130.776C45.2385 130.857 45.4222 130.903 45.6297 130.903H46.7802C47.1053 130.903 47.4029 130.762 47.6199 130.535C47.8369 130.308 47.9717 129.997 47.9717 129.657C47.9717 129.317 47.8369 129.006 47.6199 128.779C47.4026 128.552 47.1053 128.411 46.7802 128.411H45.9633C44.2788 128.411 42.7491 127.693 41.6416 126.535C40.5342 125.377 39.8469 123.777 39.8469 122.016C39.8469 120.255 40.5342 118.655 41.6416 117.498C42.2757 116.835 43.0485 116.316 43.9094 115.993V115.693C43.9094 114.271 45.012 113.118 46.3718 113.118C47.7316 113.118 48.8341 114.271 48.8341 115.693V115.887C49.1986 116.001 49.5513 116.151 49.888 116.332C50.7621 116.802 51.5095 117.472 52.0672 118.279ZM64.7525 128.412C63.3927 128.412 62.2902 127.259 62.2902 125.837C62.2902 124.415 63.3927 123.263 64.7525 123.263H69.8437C71.2036 123.263 72.3061 124.415 72.3061 125.837C72.3061 127.259 71.2036 128.412 69.8437 128.412H64.7525ZM22.8998 128.412C21.54 128.412 20.4375 127.259 20.4375 125.837C20.4375 124.415 21.54 123.263 22.8998 123.263H27.991C29.3509 123.263 30.4534 124.415 30.4534 125.837C30.4534 127.259 29.3509 128.412 27.991 128.412H22.8998Z" fill="#3CBE52"/>
<path fill-rule="evenodd" clip-rule="evenodd" d="M85.0911 105.697C116.794 105.716 132.635 105.716 132.617 105.697V143.551C132.617 149.322 121.978 154 108.854 154C95.7302 154 85.0911 149.322 85.0911 143.551V105.697Z" fill="#FFC700"/>
<path fill-rule="evenodd" clip-rule="evenodd" d="M108.854 116.145C121.942 116.145 132.617 111.451 132.617 105.697C132.617 99.942 121.942 95.2483 108.854 95.2483C95.7654 95.2483 85.0906 99.942 85.0906 105.697C85.0909 111.451 95.7657 116.145 108.854 116.145Z" fill="#F4A40E"/>
<path fill-rule="evenodd" clip-rule="evenodd" d="M108.821 128.763C95.9094 128.763 85.7491 124.383 85.0911 118.871V130.933C85.0911 136.703 95.7302 141.381 108.854 141.381C121.978 141.381 132.617 136.703 132.617 130.933L132.584 118.315C132.584 124.085 121.733 128.763 108.821 128.763Z" fill="#F4A40E"/>
<path d="M143.55 122.477C154.844 110.668 154.844 91.5226 143.55 79.714C132.256 67.9053 113.945 67.9053 102.651 79.714C91.3564 91.5226 91.3564 110.668 102.651 122.477C113.945 134.286 132.256 134.286 143.55 122.477Z" fill="#FFDA2D"/>
<path d="M123.125 123.145C134.773 123.145 144.216 113.272 144.216 101.093C144.216 88.9141 134.773 79.041 123.125 79.041C111.476 79.041 102.033 88.9141 102.033 101.093C102.033 113.272 111.476 123.145 123.125 123.145Z" fill="#FDB800"/>
<path fill-rule="evenodd" clip-rule="evenodd" d="M129.698 92.1012C130.495 93.251 130.249 94.8582 129.15 95.6913C128.05 96.5245 126.513 96.2677 125.716 95.1182C125.516 94.8285 125.263 94.5959 124.978 94.4433C124.709 94.2985 124.391 94.2168 124.043 94.2168H122.62C122.057 94.2168 121.543 94.4594 121.169 94.8508C120.795 95.2418 120.563 95.7789 120.563 96.3678C120.563 96.9564 120.795 97.4938 121.169 97.8848C121.543 98.2758 122.057 98.5185 122.62 98.5185H123.63C125.553 98.5185 127.299 99.3391 128.563 100.661C129.827 101.982 130.612 103.808 130.612 105.819C130.612 107.829 129.827 109.654 128.563 110.976C127.746 111.831 126.726 112.476 125.588 112.825V113.639C125.588 115.061 124.485 116.214 123.125 116.214C121.765 116.214 120.663 115.061 120.663 113.639V112.932C120.096 112.795 119.552 112.583 119.041 112.308C118.044 111.773 117.191 111.007 116.553 110.085C115.756 108.935 116.001 107.328 117.101 106.494C118.2 105.661 119.738 105.918 120.535 107.067C120.735 107.357 120.988 107.59 121.272 107.742C121.541 107.887 121.859 107.969 122.208 107.969H123.63C124.193 107.969 124.707 107.726 125.081 107.335C125.455 106.944 125.687 106.407 125.687 105.818C125.687 105.229 125.455 104.692 125.081 104.301C124.707 103.91 124.193 103.667 123.63 103.667H122.62C120.698 103.667 118.952 102.846 117.687 101.525C116.423 100.203 115.638 98.3769 115.638 96.3668C115.638 94.3568 116.423 92.5311 117.687 91.2094C118.505 90.3544 119.524 89.7094 120.663 89.3603V88.5461C120.663 87.1243 121.765 85.9716 123.125 85.9716C124.485 85.9716 125.588 87.1243 125.588 88.5461V89.2531C126.154 89.3908 126.698 89.6023 127.21 89.8771C128.207 90.4126 129.06 91.1785 129.698 92.1012Z" fill="#FFDA2D"/>
</svg>
