<svg width="65" height="65" viewBox="0 0 65 65" fill="none" xmlns="http://www.w3.org/2000/svg">
<path d="M63.4642 29.9061C62.4912 29.0085 61.1676 28.4541 59.8326 28.3847C58.3166 28.3063 56.8963 28.8469 55.8386 29.9051L48.6111 37.0567C48.4683 36.8092 48.3052 36.5756 48.1222 36.3589C47.233 35.3031 45.9327 34.7219 44.4613 34.7219H34.3437C32.436 34.7219 30.5748 34.4745 28.8123 33.987C24.2172 32.716 19.8274 33.6443 16.1165 36.6733C14.6074 37.9052 13.5065 39.2451 12.8102 40.2221L10.9962 38.4616C10.7576 38.23 10.4343 38.0986 10.1015 38.0986C10.0986 38.0986 10.0961 38.0986 10.0931 38.0986C9.74846 38.1011 9.4152 38.2444 9.17617 38.4924L0.357363 47.6474C0.121309 47.8924 -0.00713268 48.2217 0.000306003 48.5619C0.00774469 48.9025 0.150072 49.2259 0.39654 49.4604L15.3121 63.6629C15.5596 63.8984 15.8769 64.016 16.1938 64.016C16.5266 64.016 16.8593 63.8865 17.1098 63.6297L25.8463 54.6665C26.0848 54.4216 26.2172 54.0868 26.2108 53.7446C26.2043 53.4074 26.063 53.0821 25.821 52.847L25.0602 52.1091L26.8014 51.9132C27.8547 51.7907 28.9259 51.7288 29.9861 51.7288H45.3798C47.8811 51.7288 50.0056 51.1818 51.6947 50.1027C51.7086 50.0937 51.7225 50.0843 51.7364 50.0749C52.3414 49.6543 52.8904 49.156 53.3674 48.5941L63.7409 36.3902C65.5163 34.3019 65.4052 31.6959 63.4642 29.9061ZM16.1606 60.9398L3.09133 48.4954L10.1318 41.1861L23.1247 53.7947L16.1606 60.9398ZM61.7925 34.7338L51.419 46.9382C51.0897 47.3255 50.7123 47.6697 50.2962 47.9613C49.0282 48.7642 47.3743 49.1718 45.3798 49.1718H29.9857C28.8277 49.1718 27.6568 49.2398 26.5108 49.3732L22.6833 49.8026L14.6694 42.0257C15.2263 41.2 16.2504 39.8655 17.7336 38.6545C20.8172 36.1373 24.3154 35.3959 28.1304 36.4517C30.1151 37.0006 32.2054 37.2793 34.3437 37.2793H44.4613C46.2784 37.2793 46.7634 38.8534 46.7634 39.7832C46.7634 40.4626 46.5452 41.1093 46.1648 41.5576C45.7522 42.0431 45.1655 42.2891 44.4212 42.2891H35.6138C34.9076 42.2891 34.3353 42.8618 34.3353 43.568C34.3353 44.2742 34.9076 44.8465 35.6138 44.8465H44.4212C45.9079 44.8465 47.2191 44.2663 48.1137 43.2129C48.8581 42.3372 49.2826 41.1857 49.3183 39.9548L57.6422 31.7182C58.8319 30.5285 60.6906 30.827 61.7305 31.7861C62.2681 32.282 62.9911 33.324 61.7925 34.7338Z" fill="white"/>
<path d="M31.6262 43.2271C31.4651 42.5393 30.7772 42.1133 30.0894 42.274C29.4021 42.4352 28.9751 43.123 29.1367 43.8108L29.1486 43.8629C29.287 44.452 29.8122 44.8498 30.3924 44.8498C30.4891 44.8498 30.5873 44.8389 30.6855 44.816C31.3733 44.6549 31.7998 43.9666 31.6386 43.2792L31.6262 43.2271Z" fill="white"/>
<path d="M8.64261 26.9776H21.1019C21.7803 26.9776 22.4082 26.7575 22.9189 26.3855C23.4297 26.7575 24.0576 26.9776 24.736 26.9776H37.1958C37.8742 26.9776 38.502 26.7575 39.0128 26.3855C39.5236 26.7575 40.1514 26.9776 40.8298 26.9776H53.2891C54.9961 26.9776 56.3846 25.5886 56.3846 23.8817V18.0715C56.3846 15.4621 54.9241 13.1952 52.7382 12.077C53.7974 10.7995 54.4352 9.16099 54.4352 7.37571C54.4352 3.30873 51.1264 0 47.0595 0C42.9925 0 39.6838 3.30873 39.6838 7.37571C39.6838 9.16099 40.3215 10.8 41.3808 12.077C40.4361 12.561 39.6272 13.2597 39.0128 14.1072C38.3984 13.2592 37.5895 12.5605 36.6443 12.077C37.7036 10.8 38.3413 9.16099 38.3413 7.37571C38.3413 3.30873 35.0326 0 30.9656 0C26.8986 0 23.5899 3.30873 23.5899 7.37571C23.5899 9.16099 24.2282 10.8 25.2874 12.0775C24.3422 12.561 23.5334 13.2597 22.9189 14.1077C22.3045 13.2597 21.4957 12.561 20.5505 12.077C21.6097 10.8 22.2475 9.16099 22.2475 7.3762C22.2475 3.30873 18.9387 0 14.8718 0C10.8053 0 7.49656 3.30873 7.49656 7.3762C7.49656 9.16099 8.1343 10.8 9.19357 12.0775C7.00759 13.1957 5.54663 15.463 5.54663 18.072V23.8817C5.54663 25.5886 6.93568 26.9776 8.64261 26.9776ZM47.06 2.55742C49.7166 2.55742 51.8783 4.71861 51.8783 7.37571C51.8783 10.0323 49.7166 12.194 47.06 12.194C44.4029 12.194 42.2417 10.0328 42.2417 7.37571C42.2412 4.71861 44.4029 2.55742 47.06 2.55742ZM43.7378 13.958C44.7371 14.4643 45.8653 14.7514 47.0595 14.7514C48.2541 14.7514 49.3823 14.4643 50.3811 13.958C52.3682 14.3041 53.8277 16.0165 53.8277 18.0715V23.8817C53.8277 24.1787 53.5862 24.4202 53.2891 24.4202H40.8298C40.5333 24.4202 40.2917 24.1787 40.2917 23.8817V18.0715C40.2913 16.017 41.7512 14.3041 43.7378 13.958ZM30.9661 2.55742C33.6227 2.55742 35.7844 4.71861 35.7844 7.37571C35.7844 10.0323 33.6227 12.194 30.9661 12.194C28.309 12.194 26.1478 10.0328 26.1478 7.37571C26.1478 4.71861 28.309 2.55742 30.9661 2.55742ZM27.6445 13.958C28.6433 14.4643 29.7715 14.7514 30.9661 14.7514C32.1608 14.7514 33.2885 14.4643 34.2877 13.958C36.2744 14.3041 37.7343 16.0165 37.7343 18.0715V23.8817C37.7343 24.1787 37.4928 24.4202 37.1958 24.4202H24.7365C24.4394 24.4202 24.1979 24.1787 24.1979 23.8817V18.0715C24.1979 16.017 25.6579 14.3041 27.6445 13.958ZM14.8723 2.55742C17.5289 2.55742 19.6906 4.71861 19.6906 7.37571C19.6906 10.0323 17.5289 12.194 14.8723 12.194C12.2157 12.194 10.054 10.0323 10.054 7.37571C10.054 4.71861 12.2157 2.55742 14.8723 2.55742ZM8.10405 18.0715C8.10405 16.017 9.56402 14.3041 11.5506 13.958C12.5499 14.4643 13.6776 14.7514 14.8723 14.7514C16.0669 14.7514 17.1946 14.4643 18.1939 13.958C20.181 14.3041 21.6405 16.0165 21.6405 18.0715V23.8817C21.6405 24.1787 21.399 24.4202 21.1019 24.4202H8.64261C8.34556 24.4202 8.10405 24.1787 8.10405 23.8817V18.0715Z" fill="white"/>
</svg>
