<svg width="144" height="144" viewBox="0 0 144 144" fill="none" xmlns="http://www.w3.org/2000/svg">
<g opacity="0.5">
<rect width="143.9" height="144" rx="71.95" fill="#121619" fill-opacity="0.75"/>
<path d="M99.2299 74.092C99.5107 73.6512 99.7001 73.1585 99.7869 72.6432C99.8737 72.1278 99.8562 71.6003 99.7353 71.0918C99.6144 70.5834 99.3927 70.1044 99.0833 69.6832C98.7739 69.2621 98.383 68.9073 97.934 68.64L58.246 44.512C57.6006 44.1213 56.8604 43.9152 56.106 43.916C53.866 43.916 52.054 45.688 52.054 47.876V96.12C52.054 96.86 52.266 97.584 52.666 98.212C53.85 100.068 56.346 100.636 58.246 99.48L97.934 75.356C98.458 75.036 98.906 74.6 99.234 74.088L99.2299 74.092ZM102.214 82.08L62.53 106.204C56.83 109.672 49.33 107.964 45.786 102.4C44.5877 100.525 43.9507 98.3456 43.95 96.12V47.88C43.95 41.316 49.39 36 56.11 36C58.378 36 60.602 36.62 62.53 37.792L102.214 61.92C107.914 65.384 109.662 72.704 106.114 78.272C105.13 79.816 103.794 81.12 102.214 82.08Z" fill="white"/>
</g>
</svg>
