<svg width="81" height="80" viewBox="0 0 81 80" fill="none" xmlns="http://www.w3.org/2000/svg">
<g clip-path="url(#clip0_2_11048)">
<path d="M78 43.75H76.75V36.25C76.7499 36.0032 76.6768 35.762 76.54 35.5566L74.25 32.1216V28.75C74.5815 28.75 74.8995 28.6183 75.1339 28.3839C75.3683 28.1495 75.5 27.8315 75.5 27.5C75.5 27.1685 75.3683 26.8505 75.1339 26.6161C74.8995 26.3817 74.5815 26.25 74.25 26.25H66.75C66.4185 26.25 66.1005 26.3817 65.8661 26.6161C65.6317 26.8505 65.5 27.1685 65.5 27.5C65.5 27.8315 65.6317 28.1495 65.8661 28.3839C66.1005 28.6183 66.4185 28.75 66.75 28.75V32.1216L64.46 35.5566C64.3231 35.762 64.2501 36.0032 64.25 36.25V43.75H58V38.5725C59.0706 38.297 60.0196 37.6741 60.6982 36.8014C61.3768 35.9287 61.7468 34.8555 61.75 33.75V28.75C61.75 28.5858 61.7177 28.4233 61.6549 28.2716C61.5921 28.1199 61.5001 27.9821 61.384 27.866C61.2679 27.7499 61.1301 27.6579 60.9784 27.5951C60.8267 27.5323 60.6642 27.5 60.5 27.5H53C52.8358 27.5 52.6733 27.5323 52.5216 27.5951C52.3699 27.6579 52.2321 27.7499 52.116 27.866C51.9999 27.9821 51.9079 28.1199 51.8451 28.2716C51.7823 28.4233 51.75 28.5858 51.75 28.75V33.75C51.7532 34.8555 52.1232 35.9287 52.8018 36.8014C53.4804 37.6741 54.4294 38.297 55.5 38.5725V43.75H45.5V38.5725C46.5706 38.297 47.5196 37.6741 48.1982 36.8014C48.8768 35.9287 49.2468 34.8555 49.25 33.75V28.75C49.25 28.5858 49.2177 28.4233 49.1549 28.2716C49.0921 28.1199 49.0001 27.9821 48.884 27.866C48.7679 27.7499 48.6301 27.6579 48.4784 27.5951C48.3267 27.5323 48.1642 27.5 48 27.5H40.5C40.3358 27.5 40.1733 27.5323 40.0216 27.5951C39.8699 27.6579 39.7321 27.7499 39.616 27.866C39.4999 27.9821 39.4079 28.1199 39.3451 28.2716C39.2823 28.4233 39.25 28.5858 39.25 28.75V33.75C39.2532 34.8555 39.6232 35.9287 40.3018 36.8014C40.9804 37.6741 41.9294 38.297 43 38.5725V43.75H3C2.33719 43.7508 1.70175 44.0144 1.23307 44.4831C0.764393 44.9517 0.500758 45.5872 0.5 46.25V50C0.500758 50.6628 0.764393 51.2983 1.23307 51.7669C1.70175 52.2356 2.33719 52.4992 3 52.5V78.75C2.99996 78.9142 3.03226 79.0767 3.09506 79.2284C3.15787 79.3801 3.24994 79.5179 3.36602 79.634C3.4821 79.7501 3.61992 79.8421 3.7716 79.9049C3.92327 79.9677 4.08584 80 4.25 80H76.75C76.9142 80 77.0767 79.9677 77.2284 79.9049C77.3801 79.8421 77.5179 79.7501 77.634 79.634C77.7501 79.5179 77.8421 79.3801 77.9049 79.2284C77.9677 79.0767 78 78.9142 78 78.75V52.5C78.6628 52.4992 79.2983 52.2356 79.7669 51.7669C80.2356 51.2983 80.4992 50.6628 80.5 50V46.25C80.4992 45.5872 80.2356 44.9517 79.7669 44.4831C79.2983 44.0144 78.6628 43.7508 78 43.75ZM54.25 33.75V30H59.25V33.75C59.25 34.413 58.9866 35.0489 58.5178 35.5178C58.0489 35.9866 57.413 36.25 56.75 36.25C56.087 36.25 55.4511 35.9866 54.9822 35.5178C54.5134 35.0489 54.25 34.413 54.25 33.75ZM41.75 33.75V30H46.75V33.75C46.75 34.413 46.4866 35.0489 46.0178 35.5178C45.5489 35.9866 44.913 36.25 44.25 36.25C43.587 36.25 42.9511 35.9866 42.4822 35.5178C42.0134 35.0489 41.75 34.413 41.75 33.75ZM66.75 36.6284L69.04 33.1934C69.1769 32.988 69.2499 32.7468 69.25 32.5V28.75H71.75V32.5C71.7501 32.7468 71.8232 32.988 71.96 33.1934L74.25 36.6284V43.75H66.75V36.6284ZM13 62.5V58.75H25.5L25.5018 62.5H13ZM34.33 62.5V58.75H46.83L46.8318 62.5H34.33ZM55.5 62.5V58.75H68L68.0018 62.5H55.5ZM75.5 77.5H63V65H68C68.6628 64.9992 69.2983 64.7356 69.7669 64.2669C70.2356 63.7983 70.4992 63.1628 70.5 62.5V58.75C70.4992 58.0872 70.2356 57.4517 69.7669 56.9831C69.2983 56.5144 68.6628 56.2508 68 56.25H55.5C54.8372 56.2508 54.2017 56.5144 53.7331 56.9831C53.2644 57.4517 53.0008 58.0872 53 58.75V62.5C53.0008 63.1628 53.2644 63.7983 53.7331 64.2669C54.2017 64.7356 54.8372 64.9992 55.5 65H60.5V70H58C57.6685 70 57.3505 70.1317 57.1161 70.3661C56.8817 70.6005 56.75 70.9185 56.75 71.25C56.75 71.5815 56.8817 71.8995 57.1161 72.1339C57.3505 72.3683 57.6685 72.5 58 72.5H60.5V77.5H41.83V65H46.83C47.4928 64.9992 48.1283 64.7356 48.5969 64.2669C49.0656 63.7983 49.3292 63.1628 49.33 62.5V58.75C49.3292 58.0872 49.0656 57.4517 48.5969 56.9831C48.1283 56.5144 47.4928 56.2508 46.83 56.25H34.33C33.6672 56.2508 33.0317 56.5144 32.5631 56.9831C32.0944 57.4518 31.8308 58.0872 31.83 58.75V62.5C31.8308 63.1628 32.0944 63.7982 32.5631 64.2669C33.0317 64.7356 33.6672 64.9992 34.33 65H39.33V70H36.83C36.4985 70 36.1805 70.1317 35.9461 70.3661C35.7117 70.6005 35.58 70.9185 35.58 71.25C35.58 71.5815 35.7117 71.8995 35.9461 72.1339C36.1805 72.3683 36.4985 72.5 36.83 72.5H39.33V77.5H20.5V65H25.5C26.1628 64.9992 26.7983 64.7356 27.2669 64.2669C27.7356 63.7983 27.9992 63.1628 28 62.5V58.75C27.9992 58.0872 27.7356 57.4517 27.2669 56.9831C26.7983 56.5144 26.1628 56.2508 25.5 56.25H13C12.3372 56.2508 11.7017 56.5144 11.2331 56.9831C10.7644 57.4517 10.5008 58.0872 10.5 58.75V62.5C10.5008 63.1628 10.7644 63.7983 11.2331 64.2669C11.7017 64.7356 12.3372 64.9992 13 65H18V70H15.5C15.1685 70 14.8505 70.1317 14.6161 70.3661C14.3817 70.6005 14.25 70.9185 14.25 71.25C14.25 71.5815 14.3817 71.8995 14.6161 72.1339C14.8505 72.3683 15.1685 72.5 15.5 72.5H18V77.5H5.5V52.5H75.5V77.5ZM3 50V46.25H78L78.0018 50H3Z" fill="#FF6900"/>
<path d="M79.25 4.22759e-08H1.75C1.58584 -4.26571e-05 1.42327 0.0322604 1.2716 0.0950637C1.11992 0.157867 0.982103 0.24994 0.866021 0.366021C0.74994 0.482103 0.657867 0.619919 0.595064 0.771595C0.53226 0.923271 0.499957 1.08584 0.5 1.25V6.25C0.499957 6.41416 0.53226 6.57673 0.595064 6.7284C0.657867 6.88008 0.74994 7.0179 0.866021 7.13398C0.982103 7.25006 1.11992 7.34213 1.2716 7.40494C1.42327 7.46774 1.58584 7.50004 1.75 7.5H14.25V11.3629C12.5042 11.6591 10.9194 12.563 9.77568 13.9148C8.63196 15.2666 8.00301 16.9793 8 18.75V20C7.99996 20.1642 8.03226 20.3267 8.09506 20.4784C8.15787 20.6301 8.24994 20.7679 8.36602 20.884C8.4821 21.0001 8.61992 21.0921 8.7716 21.1549C8.92327 21.2177 9.08584 21.25 9.25 21.25H21.75C21.9142 21.25 22.0767 21.2177 22.2284 21.1549C22.3801 21.0921 22.5179 21.0001 22.634 20.884C22.7501 20.7679 22.8421 20.6301 22.9049 20.4784C22.9677 20.3267 23 20.1642 23 20V18.75C22.997 16.9793 22.368 15.2666 21.2243 13.9148C20.0806 12.563 18.4958 11.6591 16.75 11.3629V7.5H39.25V11.3629C37.5042 11.6591 35.9194 12.563 34.7757 13.9148C33.632 15.2666 33.003 16.9793 33 18.75V20C33 20.1642 33.0323 20.3267 33.0951 20.4784C33.1579 20.6301 33.2499 20.7679 33.366 20.884C33.4821 21.0001 33.6199 21.0921 33.7716 21.1549C33.9233 21.2177 34.0858 21.25 34.25 21.25H46.75C46.9142 21.25 47.0767 21.2177 47.2284 21.1549C47.3801 21.0921 47.5179 21.0001 47.634 20.884C47.7501 20.7679 47.8421 20.6301 47.9049 20.4784C47.9677 20.3267 48 20.1642 48 20V18.75C47.997 16.9793 47.368 15.2666 46.2243 13.9148C45.0806 12.563 43.4958 11.6591 41.75 11.3629V7.5H64.25V11.3629C62.5042 11.6591 60.9194 12.563 59.7757 13.9148C58.632 15.2666 58.003 16.9793 58 18.75V20C58 20.1642 58.0323 20.3267 58.0951 20.4784C58.1579 20.6301 58.2499 20.7679 58.366 20.884C58.4821 21.0001 58.6199 21.0921 58.7716 21.1549C58.9233 21.2177 59.0858 21.25 59.25 21.25H71.75C71.9142 21.25 72.0767 21.2177 72.2284 21.1549C72.3801 21.0921 72.5179 21.0001 72.634 20.884C72.7501 20.7679 72.8421 20.6301 72.9049 20.4784C72.9677 20.3267 73 20.1642 73 20V18.75C72.997 16.9793 72.368 15.2666 71.2243 13.9148C70.0806 12.563 68.4958 11.6591 66.75 11.3629V7.5H79.25C79.4142 7.50004 79.5767 7.46774 79.7284 7.40494C79.8801 7.34213 80.0179 7.25006 80.134 7.13398C80.2501 7.0179 80.3421 6.88008 80.4049 6.7284C80.4677 6.57673 80.5 6.41416 80.5 6.25V1.25C80.5 1.08584 80.4677 0.923271 80.4049 0.771595C80.3421 0.619919 80.2501 0.482103 80.134 0.366021C80.0179 0.24994 79.8801 0.157867 79.7284 0.0950637C79.5767 0.0322604 79.4142 -4.26571e-05 79.25 4.22759e-08ZM20.5 18.75H10.5C10.5 17.4239 11.0268 16.1521 11.9645 15.2145C12.9021 14.2768 14.1739 13.75 15.5 13.75C16.8261 13.75 18.0979 14.2768 19.0355 15.2145C19.9732 16.1521 20.5 17.4239 20.5 18.75ZM45.5 18.75H35.5C35.5 17.4239 36.0268 16.1521 36.9645 15.2145C37.9021 14.2768 39.1739 13.75 40.5 13.75C41.8261 13.75 43.0979 14.2768 44.0355 15.2145C44.9732 16.1521 45.5 17.4239 45.5 18.75ZM70.5 18.75H60.5C60.5 17.4239 61.0268 16.1521 61.9645 15.2145C62.9021 14.2768 64.1739 13.75 65.5 13.75C66.8261 13.75 68.0979 14.2768 69.0355 15.2145C69.9732 16.1521 70.5 17.4239 70.5 18.75ZM78 5H3V2.5H78V5Z" fill="#FF6900"/>
</g>
<defs>
<clipPath id="clip0_2_11048">
<rect width="80" height="80" fill="white" transform="translate(0.5)"/>
</clipPath>
</defs>
</svg>
