<svg width="81" height="80" viewBox="0 0 81 80" fill="none" xmlns="http://www.w3.org/2000/svg">
<path d="M79.3281 77.6562H75.2828V64.4106C75.2828 63.7633 74.7583 63.2388 74.1109 63.2388C73.4636 63.2388 72.9391 63.7633 72.9391 64.4106V77.6562H62.1406V71.5625V66.875V59.0453C62.1406 58.398 61.6161 57.8734 60.9688 57.8734C60.3214 57.8734 59.7969 58.398 59.7969 59.0453V65.7031H50.0641C48.3659 65.7031 46.9844 67.0847 46.9844 68.7828V69.2188V71.5625V77.6562H41.6719V63.0484H50.5925C52.1002 63.0484 53.3269 61.8217 53.3269 60.3141V58.7516C53.3269 57.2439 52.1002 56.0172 50.5925 56.0172H30.4075C28.8998 56.0172 27.6731 57.2439 27.6731 58.7516V60.3141C27.6731 61.8217 28.8998 63.0484 30.4075 63.0484H39.3281V77.6562H34.0156V71.5625V69.2188V68.7828C34.0156 67.0847 32.6341 65.7031 30.9361 65.7031H21.2031V59.0453C21.2031 58.398 20.6784 57.8734 20.0312 57.8734C19.3841 57.8734 18.8594 58.398 18.8594 59.0453V66.875V71.5625V77.6562H8.06094V41.4842C8.83328 41.7697 9.6675 41.9259 10.5378 41.9259C13.0422 41.9259 15.2491 40.6334 16.5303 38.6813C17.8116 40.6333 20.0184 41.9259 22.5228 41.9259C25.0272 41.9259 27.2341 40.6334 28.5153 38.6813C29.7966 40.6333 32.0034 41.9259 34.5078 41.9259C37.0122 41.9259 39.2188 40.6334 40.5 38.6814C41.7812 40.6334 43.9881 41.9261 46.4925 41.9261C48.9969 41.9261 51.2038 40.6336 52.485 38.6814C53.7663 40.6334 55.9731 41.9261 58.4775 41.9261C60.9817 41.9261 63.1887 40.6336 64.47 38.6814C65.7513 40.6334 67.9581 41.9261 70.4625 41.9261C71.3327 41.9261 72.167 41.7698 72.9394 41.4844V58.942C72.9394 59.5894 73.4639 60.1139 74.1113 60.1139C74.7586 60.1139 75.2831 59.5894 75.2831 58.942V40.0569C76.7222 38.7455 77.6269 36.8572 77.6269 34.7616V29.5828H78.047C78.5827 29.5828 79.0863 29.3462 79.4289 28.9338C79.7716 28.5209 79.9117 27.9819 79.8133 27.4556L78.3195 19.4389C77.8039 16.6659 75.3816 14.6531 72.5595 14.6531H65.0312V3.51562C65.0312 1.57719 63.4541 0 61.5156 0H19.4844C17.5458 0 15.9688 1.57719 15.9688 3.51562V14.6531H8.44063C5.61859 14.6531 3.19641 16.6659 2.68078 19.4384L1.18719 27.4548C1.08859 27.982 1.22875 28.5209 1.57141 28.9338C2.23969 29.7386 3.37344 29.5828 3.37344 29.5828V34.7617C3.37344 36.8573 4.27812 38.7456 5.71719 40.057V77.6562H1.67188C1.02469 77.6562 0.5 78.1808 0.5 78.8281C0.5 79.4755 1.02469 80 1.67188 80H79.3281C79.9755 80 80.5 79.4755 80.5 78.8281C80.5 78.1808 79.9755 77.6562 79.3281 77.6562ZM27.3433 34.7617C27.3433 37.4198 25.1808 39.5823 22.5227 39.5823C19.8645 39.5823 17.702 37.4198 17.702 34.7617V29.5828H27.3433V34.7617ZM39.3281 34.7617C39.3281 37.4198 37.1656 39.5823 34.5075 39.5823C31.8494 39.5823 29.6869 37.4198 29.6869 34.7617V29.5828H39.3281V34.7617ZM51.313 34.7617C51.313 37.4198 49.1505 39.5823 46.4923 39.5823C43.8342 39.5823 41.6717 37.4198 41.6717 34.7617V29.5828H51.3128V34.7617H51.313ZM63.2978 34.7617C63.2978 37.4198 61.1353 39.5823 58.4772 39.5823C55.8191 39.5823 53.6566 37.4198 53.6566 34.7617V29.5828H63.2977V34.7617H63.2978ZM75.2828 34.7617C75.2828 37.4198 73.1203 39.5823 70.4622 39.5823H70.462C67.8039 39.5823 65.6414 37.4198 65.6414 34.7617V29.5828H75.2827L75.2828 34.7617ZM3.61141 27.2391L4.985 19.8673C5.29422 18.2041 6.7475 16.9969 8.44063 16.9969H15.9688V20.0781C15.9688 22.0166 17.5458 23.5938 19.4844 23.5938H33.1742C33.8214 23.5938 34.3461 23.0692 34.3461 22.4219C34.3461 21.7745 33.8214 21.25 33.1742 21.25H19.4844C18.8381 21.25 18.3125 20.7244 18.3125 20.0781V3.51562C18.3125 2.86937 18.8381 2.34375 19.4844 2.34375H61.5156C62.1619 2.34375 62.6875 2.86937 62.6875 3.51562V20.0781C62.6875 20.7244 62.1619 21.25 61.5156 21.25H38.643C37.9958 21.25 37.4711 21.7745 37.4711 22.4219C37.4711 23.0692 37.9958 23.5938 38.643 23.5938H61.5156C63.4541 23.5938 65.0312 22.0166 65.0312 20.0781V16.9969H72.5594C74.2527 16.9969 75.7059 18.2041 76.0152 19.8678L77.3886 27.2391H3.61141ZM5.71719 34.7617V29.5828H15.3583V34.7617C15.3583 37.4198 13.1958 39.5823 10.5377 39.5823C7.87953 39.5823 5.71719 37.4197 5.71719 34.7617ZM31.6719 77.6562H21.2031V72.7344H31.6719V77.6562ZM31.6719 69.2188V70.3906H21.2031V68.0469H30.9361C31.3419 68.0469 31.6719 68.377 31.6719 68.7828V69.2188ZM30.4075 60.7047C30.1922 60.7047 30.0169 60.5295 30.0169 60.3141V58.7516C30.0169 58.5361 30.1922 58.3609 30.4075 58.3609H50.5925C50.808 58.3609 50.9831 58.5361 50.9831 58.7516V60.3141C50.9831 60.5295 50.808 60.7047 50.5925 60.7047H30.4075ZM59.7969 77.6562H49.3281V72.7344H59.7969V77.6562ZM59.7969 70.3906H49.3281V69.2188V68.7828C49.3281 68.377 49.6583 68.0469 50.0641 68.0469H59.7969V70.3906ZM32.8053 13.6066C32.3094 13.1909 31.5703 13.2556 31.1544 13.7516C31.0939 13.8236 31.0287 13.8909 30.96 13.952C30.6114 14.2625 30.1625 14.42 29.6255 14.42C28.1477 14.42 26.9453 13.2178 26.9453 11.74C26.9453 10.2622 28.1477 9.05984 29.6255 9.05984C30.1627 9.05984 30.6803 9.21797 31.123 9.51703C31.6592 9.87906 32.3877 9.73844 32.7502 9.20187C33.1125 8.66562 32.9714 7.93719 32.4352 7.57484C31.6036 7.01297 30.6319 6.71609 29.6255 6.71609C26.8553 6.71609 24.6016 8.96984 24.6016 11.74C24.6016 14.5102 26.8553 16.7638 29.6255 16.7638C30.7388 16.7638 31.7394 16.3966 32.5186 15.7023C32.6716 15.5663 32.8167 15.4166 32.9502 15.2575C33.3661 14.7617 33.3013 14.0225 32.8053 13.6066ZM35.1009 16.8009C35.7058 17.0314 36.3828 16.7277 36.6131 16.1228L37.0461 14.9859H40.0761L40.5039 16.1197C40.8634 17.0722 41.8398 16.868 42.0142 16.8022C42.6197 16.5737 42.9253 15.8977 42.6967 15.292L39.8303 7.69625C39.8258 7.68453 39.4617 6.83 38.5723 6.83C38.5719 6.83 38.5714 6.83 38.5709 6.83C37.677 6.83 37.3213 7.67828 37.3156 7.69328L34.4228 15.2887C34.1925 15.8936 34.4961 16.5706 35.1009 16.8009ZM38.5681 10.9898L39.1917 12.6422H37.9388L38.5681 10.9898ZM45.3689 16.7638C46.0163 16.7638 46.5408 16.2392 46.5408 15.5919V12.8677H48.2223C48.8697 12.8677 49.3942 12.3431 49.3942 11.6958C49.3942 11.0484 48.8697 10.5239 48.2223 10.5239H46.5408V9.11625H48.4684C49.1158 9.11625 49.6403 8.59172 49.6403 7.94438C49.6403 7.29703 49.1158 6.7725 48.4684 6.7725H45.3689C44.7216 6.7725 44.197 7.29703 44.197 7.94438V15.5919C44.197 16.2392 44.7217 16.7638 45.3689 16.7638ZM52.0098 16.7638H55.2262C55.8736 16.7638 56.3981 16.2392 56.3981 15.5919C56.3981 14.9445 55.8736 14.42 55.2262 14.42H53.1817V12.9469H54.9891C55.6364 12.9469 56.1609 12.4223 56.1609 11.775C56.1609 11.1277 55.6364 10.6031 54.9891 10.6031H53.1817V9.13H55.2262C55.8736 9.13 56.3981 8.60547 56.3981 7.95813C56.3981 7.31078 55.8736 6.78625 55.2262 6.78625H52.0098C51.3625 6.78625 50.838 7.31078 50.838 7.95813V15.5917C50.838 16.2392 51.3627 16.7638 52.0098 16.7638Z" fill="#FF6900"/>
</svg>
