<svg width="80" height="80" viewBox="0 0 80 80" fill="none" xmlns="http://www.w3.org/2000/svg">
<path d="M20.3765 58.6685C19.7341 58.6685 19.2134 58.1477 19.2134 57.5055V45.6474C18.7237 45.7037 18.2458 45.7309 17.7734 45.7309C10.1786 45.7311 4 39.5522 4 31.9572C4 24.5313 9.90688 18.4591 17.2682 18.1921C19.4816 9.96471 27.0683 4.08887 35.6635 4.08887C44.2598 4.08887 51.8475 9.96471 54.0589 18.1921C61.4211 18.4593 67.3278 24.5313 67.3278 31.9572C67.3278 39.5522 61.1485 45.7309 53.5538 45.7309C53.0811 45.7309 52.6043 45.7037 52.1146 45.6474V51.5415C52.1146 52.1839 51.5938 52.7045 50.9515 52.7045C50.3091 52.7045 49.7885 52.1839 49.7885 51.5415V44.2781C49.7885 43.9274 49.9466 43.5959 50.219 43.3751C50.4907 43.1533 50.8469 43.0661 51.1923 43.1405C52.0336 43.3188 52.8059 43.405 53.5538 43.405C59.8666 43.405 65.0021 38.2697 65.0021 31.9572C65.0021 25.6449 59.8667 20.5089 53.5538 20.5089C53.5019 20.5089 53.4501 20.5133 53.3982 20.517L53.1858 20.5293C52.5979 20.5481 52.1282 20.161 52.0101 19.6113C50.3664 11.9645 43.492 6.41495 35.6635 6.41495C27.836 6.41495 20.9616 11.965 19.3171 19.6113C19.2016 20.1487 18.7266 20.5298 18.1805 20.5298C18.1413 20.5293 17.9288 20.517 17.9288 20.517C17.877 20.5133 17.8262 20.5089 17.7734 20.5089C11.4614 20.5089 6.32608 25.6449 6.32608 31.9572C6.32608 38.2697 11.4614 43.405 17.7734 43.405C18.5219 43.405 19.2942 43.3188 20.1357 43.1405C20.479 43.0661 20.8362 43.1533 21.1088 43.3751C21.3814 43.5957 21.5395 43.9274 21.5395 44.2781V57.5055C21.5395 58.1479 21.0189 58.6685 20.3765 58.6685Z" fill="#FF6900"/>
<path d="M37.1275 64.7533H19.1727C17.918 64.7533 16.8977 63.7329 16.8977 62.4782V58.6168C16.8977 57.3628 17.918 56.3425 19.1727 56.3425H31.9585C32.6009 56.3425 33.1215 56.8632 33.1215 57.5056C33.1215 58.1478 32.6009 58.6686 31.9585 58.6686H19.1727L19.2238 62.4782L37.1276 62.4273C37.7699 62.4273 38.2907 62.948 38.2907 63.5904C38.2905 64.2326 37.7697 64.7533 37.1275 64.7533Z" fill="#FF6900"/>
<path d="M29.1289 53.0553C28.4865 53.0553 27.9658 52.5346 27.9658 51.8922V45.0159C27.9658 44.3737 28.4865 43.853 29.1289 43.853C29.7713 43.853 30.2919 44.3737 30.2919 45.0159V51.8922C30.2919 52.5346 29.7713 53.0553 29.1289 53.0553Z" fill="#FF6900"/>
<path d="M57.0872 65.2105C56.7763 65.2105 56.4665 65.087 56.2376 64.8425C55.7989 64.3727 55.8234 63.6369 56.2922 63.1978L61.5258 58.3006C61.8818 57.9681 62.4061 57.8916 62.8413 58.1097C65.1338 59.2601 68.1192 58.6812 70.2645 56.6724C73.092 54.0274 74.832 48.5749 72.805 46.4079C70.7778 44.2428 65.2218 45.6158 62.3962 48.2614C60.2491 50.2694 59.475 53.2078 60.4682 55.5729C60.6571 56.0217 60.5464 56.5406 60.191 56.873L54.6242 62.082C54.1563 62.5209 53.4194 62.4972 52.9795 62.0276C52.5408 61.5578 52.5651 60.8217 53.0341 60.383L58.0448 55.6946C57.1226 52.5991 58.1765 49.0238 60.8061 46.5623C64.5086 43.0988 71.4429 41.5497 74.504 44.8188C77.5632 48.0898 75.5562 54.9069 71.8544 58.3714C69.2242 60.8319 65.5888 61.6433 62.5587 60.5202L57.8822 64.897C57.6579 65.1068 57.3726 65.2105 57.0872 65.2105Z" fill="#FF6900"/>
<path d="M45.0583 75.6773C45.0202 75.6773 44.9829 75.6773 44.9447 75.6755C44.0634 75.6464 43.2457 75.2757 42.6423 74.6314C41.3977 73.3013 41.4674 71.2061 42.7967 69.9613L44.613 68.263C45.08 67.8251 45.8186 67.8488 46.2565 68.3186C46.6954 68.7875 46.6709 69.5234 46.201 69.9622L44.3857 71.6605C43.9932 72.0283 43.9724 72.648 44.3413 73.0414C44.5194 73.2323 44.761 73.3422 45.0226 73.3514C45.2616 73.3584 45.5324 73.2667 45.7223 73.0878L52.7311 66.5294C53.2008 66.0915 53.937 66.1152 54.3757 66.584C54.8146 67.0536 54.7901 67.7896 54.3213 68.2285L47.3124 74.7869C46.6956 75.3638 45.8988 75.6773 45.0583 75.6773Z" fill="#FF6900"/>
<path d="M62.4724 75.911C61.6319 75.9118 60.8351 75.5976 60.2182 75.0206L48.8382 64.3718L47.7425 65.5438C47.3535 65.9592 46.7193 66.0336 46.2441 65.7147C45.6535 65.3176 31.8075 55.8618 33.8201 43.7458C33.8908 43.3234 34.1879 42.9726 34.5942 42.8354C34.9975 42.6963 35.4492 42.7936 35.7627 43.087L64.7332 70.1949C65.3774 70.7973 65.7491 71.616 65.7782 72.4982C65.8071 73.3795 65.491 74.22 64.8887 74.865C64.2854 75.5093 63.4676 75.88 62.5862 75.9091C62.5478 75.911 62.5105 75.911 62.4724 75.911ZM48.7836 61.5653C49.0689 61.5653 49.3543 61.6688 49.5787 61.8787L61.8084 73.3216C61.9982 73.5005 62.2718 73.5877 62.5079 73.5851C62.7689 73.576 63.0113 73.4661 63.1894 73.2752C63.3684 73.0854 63.462 72.8365 63.4529 72.5755C63.4447 72.3139 63.3348 72.0723 63.1439 71.8942L35.9543 46.4526C36.1625 54.5382 44.1599 61.2445 46.7459 63.2043L47.9342 61.9333C48.163 61.6888 48.4729 61.5653 48.7836 61.5653Z" fill="#FF6900"/>
</svg>
