<svg width="81" height="80" viewBox="0 0 81 80" fill="none" xmlns="http://www.w3.org/2000/svg">
<g clip-path="url(#clip0_2_11088)">
<path d="M80.2875 24.675H80.275V24.6625C80.1386 24.1691 79.9412 23.6946 79.6875 23.25L74.8 14.575C74.4905 13.9512 74.0129 13.4264 73.4209 13.0598C72.829 12.6931 72.1463 12.4992 71.45 12.5H70.5V10C70.497 9.00635 70.101 8.05425 69.3984 7.35163C68.6958 6.64901 67.7437 6.25297 66.75 6.25H14.25C13.2564 6.25297 12.3042 6.64901 11.6016 7.35163C10.899 8.05425 10.503 9.00635 10.5 10V12.5H9.55C8.8627 12.4969 8.18801 12.6846 7.601 13.0421C7.01399 13.3996 6.53766 13.9129 6.225 14.525L1.3 23.2625C1.05332 23.7046 0.860293 24.1746 0.725 24.6625V24.675H0.7125C0.575105 25.2101 0.503741 25.76 0.5 26.3125L0.5 26.9625C0.501274 27.9087 0.699796 28.8443 1.0829 29.7095C1.466 30.5747 2.02526 31.3505 2.725 31.9875C3.51622 32.7003 4.4684 33.2107 5.5 33.475V66.25C4.83757 66.252 4.20283 66.516 3.73442 66.9844C3.26601 67.4528 3.00198 68.0876 3 68.75V71.25C3.00198 71.9124 3.26601 72.5472 3.73442 73.0156C4.20283 73.484 4.83757 73.748 5.5 73.75H75.5C76.1624 73.748 76.7972 73.484 77.2656 73.0156C77.734 72.5472 77.998 71.9124 78 71.25V68.75C77.998 68.0876 77.734 67.4528 77.2656 66.9844C76.7972 66.516 76.1624 66.252 75.5 66.25V33.5C76.9518 33.0555 78.2218 32.1554 79.1223 30.933C80.0228 29.7106 80.5059 28.2308 80.5 26.7125V26.3125C80.4963 25.76 80.4249 25.2101 80.2875 24.675ZM71.45 15C71.6931 15.0029 71.9304 15.0749 72.1341 15.2078C72.3377 15.3406 72.4993 15.5287 72.6 15.75L77.1 23.75H69.025L65.55 15H71.45ZM28 36.25H13C12.3376 36.252 11.7028 36.516 11.2344 36.9844C10.766 37.4528 10.502 38.0876 10.5 38.75V66.25H8V33.7125C8.95625 33.5961 9.87672 33.2772 10.7001 32.7772C11.5234 32.2771 12.2308 31.6074 12.775 30.8125C13.3928 31.7128 14.2194 32.4502 15.1841 32.9617C16.1488 33.4732 17.223 33.7435 18.3149 33.7496C19.4068 33.7558 20.484 33.4975 21.4544 32.9969C22.4248 32.4964 23.2596 31.7683 23.8875 30.875C24.5122 31.7633 25.3415 32.4882 26.3053 32.9886C27.269 33.489 28.3391 33.7503 29.425 33.7503C30.5109 33.7503 31.581 33.489 32.5447 32.9886C33.5085 32.4882 34.3378 31.7633 34.9625 30.875C35.5872 31.7633 36.4165 32.4882 37.3803 32.9886C38.344 33.489 39.4141 33.7503 40.5 33.7503C41.5859 33.7503 42.656 33.489 43.6197 32.9886C44.5835 32.4882 45.4128 31.7633 46.0375 30.875C46.6622 31.7633 47.4915 32.4882 48.4553 32.9886C49.419 33.489 50.4891 33.7503 51.575 33.7503C52.6609 33.7503 53.731 33.489 54.6947 32.9886C55.6585 32.4882 56.4878 31.7633 57.1125 30.875C57.736 31.763 58.5642 32.4877 59.5269 32.9881C60.4897 33.4885 61.5587 33.7497 62.6437 33.7497C63.7288 33.7497 64.7978 33.4885 65.7606 32.9881C66.7233 32.4877 67.5515 31.763 68.175 30.875C68.4567 31.2854 68.7885 31.6591 69.1625 31.9875C70.2292 32.9465 71.573 33.5418 73 33.6875V66.25H30.5V38.75C30.498 38.0876 30.234 37.4528 29.7656 36.9844C29.2972 36.516 28.6624 36.252 28 36.25ZM28 38.75V66.25H13V38.75H28ZM22.6375 26.25V26.9625C22.6375 28.098 22.1864 29.1869 21.3836 29.9898C20.5807 30.7927 19.4917 31.2438 18.3563 31.2438C17.2208 31.2438 16.1318 30.7927 15.3289 29.9898C14.5261 29.1869 14.075 28.098 14.075 26.9625V26.25H22.6375ZM14.6625 23.75L18.1375 15H24.9875L22.9 23.75H14.6625ZM33.7125 26.25V26.9625C33.7125 28.0996 33.2608 29.1902 32.4567 29.9942C31.6527 30.7983 30.5621 31.25 29.425 31.25C28.2879 31.25 27.1973 30.7983 26.3933 29.9942C25.5892 29.1902 25.1375 28.0996 25.1375 26.9625V26.25H33.7125ZM25.475 23.75L27.5625 15H34.5L33.8125 23.75H25.475ZM44.7875 26.25V26.9625C44.7875 28.0996 44.3358 29.1902 43.5317 29.9942C42.7277 30.7983 41.6371 31.25 40.5 31.25C39.3629 31.25 38.2723 30.7983 37.4683 29.9942C36.6642 29.1902 36.2125 28.0996 36.2125 26.9625V26.25H44.7875ZM36.3125 23.75L37.0125 15H43.9875L44.6875 23.75H36.3125ZM47.1875 23.75L46.5 15H53.4375L55.525 23.75H47.1875ZM55.8625 26.25V26.9625C55.8625 28.0996 55.4108 29.1902 54.6067 29.9942C53.8027 30.7983 52.7121 31.25 51.575 31.25C50.4379 31.25 49.3473 30.7983 48.5433 29.9942C47.7392 29.1902 47.2875 28.0996 47.2875 26.9625V26.25H55.8625ZM58.1 23.75L56.0125 15H62.8625L66.3375 23.75H58.1ZM66.925 26.25V26.9875C66.9217 28.123 66.4674 29.2106 65.6622 30.0111C64.857 30.8117 63.7667 31.2596 62.6313 31.2562C61.4958 31.2529 60.4082 30.7987 59.6076 29.9935C58.8071 29.1882 58.3592 28.098 58.3625 26.9625V26.25H66.925ZM13 10C13 9.66848 13.1317 9.35054 13.3661 9.11612C13.6005 8.8817 13.9185 8.75 14.25 8.75H66.75C67.0815 8.75 67.3995 8.8817 67.6339 9.11612C67.8683 9.35054 68 9.66848 68 10V12.5H13V10ZM8.425 15.7C8.52808 15.4896 8.68821 15.3124 8.88712 15.1887C9.08603 15.0649 9.31573 14.9995 9.55 15H15.45L11.975 23.75H3.9L8.425 15.7ZM4.4 30.1375C3.96014 29.7336 3.60868 29.2429 3.36773 28.6965C3.12679 28.1501 3.00158 27.5597 3 26.9625V26.25H11.575V26.775C11.5869 27.8608 11.2004 28.9133 10.4887 29.7334C9.77688 30.5534 8.78919 31.0841 7.7125 31.225C7.11472 31.2909 6.50975 31.228 5.93835 31.0404C5.36695 30.8528 4.84238 30.5449 4.4 30.1375ZM75.5 71.25H5.5V68.75H75.5V71.25ZM78 26.7125C78.0228 27.8058 77.6433 28.8694 76.9336 29.7013C76.2238 30.5332 75.2332 31.0754 74.15 31.225C73.5523 31.289 72.9479 31.2251 72.3768 31.0376C71.8057 30.8501 71.281 30.5433 70.8375 30.1375C70.3977 29.7381 70.0452 29.2522 69.8021 28.7101C69.559 28.168 69.4306 27.5816 69.425 26.9875V26.25H78V26.7125Z" fill="#FF6900"/>
<path d="M23.625 54.375C24.6605 54.375 25.5 53.5355 25.5 52.5C25.5 51.4645 24.6605 50.625 23.625 50.625C22.5895 50.625 21.75 51.4645 21.75 52.5C21.75 53.5355 22.5895 54.375 23.625 54.375Z" fill="#FF6900"/>
<path d="M68 36.25H35.5C34.837 36.25 34.2011 36.5134 33.7322 36.9822C33.2634 37.4511 33 38.087 33 38.75V55C33 55.663 33.2634 56.2989 33.7322 56.7678C34.2011 57.2366 34.837 57.5 35.5 57.5H68C68.663 57.5 69.2989 57.2366 69.7678 56.7678C70.2366 56.2989 70.5 55.663 70.5 55V38.75C70.5 38.087 70.2366 37.4511 69.7678 36.9822C69.2989 36.5134 68.663 36.25 68 36.25ZM68 50H53V38.75H68V50ZM50.5 38.75V50H35.5V38.75H50.5ZM35.5 55V52.5H68V55H35.5Z" fill="#FF6900"/>
</g>
<defs>
<clipPath id="clip0_2_11088">
<rect width="80" height="80" fill="white" transform="translate(0.5)"/>
</clipPath>
</defs>
</svg>
