<svg width="75" height="74" viewBox="0 0 75 74" fill="none" xmlns="http://www.w3.org/2000/svg">
<path d="M3.64389 7.15954L3.64014 7.15454L3.64514 7.16142L3.64389 7.15954Z" fill="#FF6900"/>
<path d="M3.7593 7.31255L3.74992 7.2963L3.7168 7.25317L3.7593 7.31255Z" fill="#FF6900"/>
<path d="M5.77515 5.82812L5.78515 5.84063L5.80577 5.86813L5.77515 5.82812Z" fill="#FF6900"/>
<path d="M5.70435 5.73511L5.71247 5.74573V5.74261L5.70435 5.73511Z" fill="#FF6900"/>
<path d="M5.70996 5.74268V5.7458L5.76809 5.82205L5.70996 5.74268Z" fill="#FF6900"/>
<path d="M59.635 0.588833C59.525 0.45228 59.3874 0.340419 59.2313 0.260521C59.0751 0.180623 58.9039 0.134477 58.7288 0.125083C58.5537 0.115026 58.3786 0.142314 58.2149 0.205135C58.0512 0.267957 57.9028 0.364876 57.7794 0.489458L32.5713 25.6995C27.1489 16.7724 19.3826 9.50299 10.1169 4.68196L6.42191 2.75696C6.21094 2.64719 5.97304 2.59988 5.73613 2.62058C5.49922 2.64129 5.27314 2.72914 5.08441 2.87383L1.11628 5.91321C0.931588 6.05441 0.789934 6.24433 0.707238 6.46161C0.624542 6.67889 0.604082 6.91494 0.648157 7.14321L1.13566 9.66758C2.82761 18.396 6.51679 26.6144 11.9144 33.6795C12.6544 34.6451 13.4682 35.6376 14.3369 36.632C15.1114 37.5107 15.9962 38.2857 16.9694 38.9376L17.9944 40.2757L8.77941 49.4907C8.19705 50.0756 7.86282 50.8627 7.84632 51.6879C7.82983 52.5132 8.13234 53.3129 8.69086 53.9207C9.24937 54.5284 10.0208 54.8972 10.8445 54.9503C11.6682 55.0034 12.4806 54.7367 13.1125 54.2057L22.5625 46.237L25.1638 49.632C23.4629 50.2494 21.9164 51.2287 20.6311 52.5023C19.3457 53.7758 18.3522 55.3132 17.7191 57.0083C17.0861 58.7034 16.8285 60.5157 16.9644 62.32C17.1002 64.1243 17.6261 65.8776 18.5058 67.4588C19.3855 69.04 20.598 70.4114 22.0595 71.4782C23.521 72.545 25.1967 73.2818 26.9708 73.6376C28.7449 73.9935 30.5751 73.9599 32.3349 73.5393C34.0948 73.1187 35.7423 72.321 37.1638 71.2013C42.5107 66.992 43.4138 59.0651 39.1707 53.5307L32.5438 44.8782C31.7953 43.8916 31.419 42.6725 31.4813 41.4357C32.6913 41.6961 33.7705 42.3757 34.5282 43.3545L41.16 52.0107C45.3813 57.5176 53.2657 58.7532 58.7425 54.6707C61.3216 52.7491 63.061 49.9075 63.5991 46.7365C64.1372 43.5656 63.4327 40.3093 61.632 37.6443C59.8313 34.9794 57.0729 33.1109 53.9301 32.4272C50.7873 31.7435 47.502 32.2972 44.7569 33.9732C43.2931 34.8735 42.0282 36.0627 41.0394 37.4682L37.6182 33.0001L40.545 30.097L42.9482 32.5001C43.1839 32.7278 43.4997 32.8538 43.8274 32.8509C44.1552 32.8481 44.4687 32.7166 44.7004 32.4849C44.9322 32.2531 45.0636 31.9396 45.0665 31.6118C45.0693 31.2841 44.9434 30.9683 44.7157 30.7326L42.3125 28.332L43.6388 27.0063L47.4544 30.8188C47.5697 30.9382 47.7076 31.0334 47.8602 31.099C48.0127 31.1645 48.1767 31.199 48.3427 31.2004C48.5086 31.2018 48.6732 31.1702 48.8269 31.1074C48.9805 31.0445 49.12 30.9517 49.2374 30.8343C49.3548 30.717 49.4476 30.5774 49.5104 30.4238C49.5733 30.2702 49.6049 30.1056 49.6035 29.9396C49.602 29.7736 49.5675 29.6096 49.502 29.4571C49.4365 29.3046 49.3413 29.1666 49.2219 29.0513L45.4094 25.2388L46.7357 23.9126L53.7544 30.9338C53.9902 31.1615 54.3059 31.2875 54.6337 31.2847C54.9614 31.2818 55.2749 31.1504 55.5067 30.9186C55.7384 30.6868 55.8699 30.3733 55.8727 30.0456C55.8756 29.7178 55.7496 29.4021 55.5219 29.1663L48.5 22.1457L49.8257 20.8207L60.4319 31.427C60.6677 31.6547 60.9834 31.7806 61.3112 31.7778C61.6389 31.775 61.9524 31.6435 62.1842 31.4117C62.4159 31.18 62.5474 30.8665 62.5502 30.5387C62.5531 30.211 62.4271 29.8952 62.1994 29.6595L51.5938 19.0532L52.92 17.7276L63.5263 28.3332C63.762 28.5609 64.0778 28.6869 64.4055 28.684C64.7333 28.6812 65.0468 28.5497 65.2786 28.318C65.5103 28.0862 65.6418 27.7727 65.6446 27.445C65.6475 27.1172 65.5215 26.8015 65.2938 26.5657L54.6875 15.9601L56.0132 14.6345L66.6188 25.2401C66.8532 25.4745 67.1712 25.6061 67.5028 25.6061C67.8343 25.606 68.1522 25.4742 68.3866 25.2398C68.621 25.0053 68.7526 24.6873 68.7526 24.3558C68.7525 24.0243 68.6208 23.7063 68.3863 23.472L57.7819 12.867L59.1069 11.5426L69.4375 21.8657C69.9613 22.3893 70.6661 22.6919 71.4064 22.7112C72.1468 22.7305 72.8663 22.4651 73.4167 21.9695C73.9671 21.474 74.3065 20.7862 74.3648 20.0479C74.4231 19.3096 74.1959 18.5771 73.73 18.0013L59.635 0.588833ZM5.97316 5.34196L8.96191 6.89883C17.7859 11.4892 25.1896 18.4009 30.375 26.8888C27.2888 26.592 24.33 26.3263 23.7569 26.2501C22.1073 26.0317 20.6098 25.173 19.5882 23.8595C9.55691 10.7645 6.59316 6.89633 5.83816 5.91258L5.82691 5.89758L5.78378 5.84071L5.71128 5.74571L5.70316 5.73508L5.66566 5.68696L5.65691 5.67571L5.63878 5.65196L5.61128 5.61633L5.97316 5.34196ZM11.5 52.2963C11.3645 52.4092 11.1916 52.4673 11.0154 52.4593C10.8392 52.4513 10.6723 52.3778 10.5475 52.2532C10.4813 52.1884 10.4287 52.1111 10.3928 52.0257C10.3569 51.9403 10.3384 51.8486 10.3384 51.756C10.3384 51.6634 10.3569 51.5717 10.3928 51.4863C10.4287 51.401 10.4813 51.3236 10.5475 51.2588L19.5288 42.2776L21.0394 44.2501L11.5 52.2963ZM37.1875 55.0513C40.6007 59.5057 39.8969 65.8695 35.62 69.2388C34.4309 70.1732 33.0454 70.8257 31.5677 71.1472C30.0899 71.4688 28.5586 71.451 27.0887 71.0951C25.6189 70.7393 24.2489 70.0548 23.0818 69.093C21.9148 68.1312 20.9811 66.9173 20.3509 65.5425C19.7208 64.1678 19.4107 62.668 19.444 61.1561C19.4772 59.6441 19.8529 58.1594 20.5428 56.8137C21.2328 55.468 22.2189 54.2962 23.4271 53.3867C24.6353 52.4771 26.0341 51.8535 27.5182 51.5626C27.7267 51.5214 27.9214 51.4277 28.0837 51.2904C28.2459 51.153 28.3705 50.9766 28.4456 50.7777C28.5207 50.5788 28.5438 50.364 28.5127 50.1537C28.4817 49.9434 28.3975 49.7444 28.2682 49.5757L21.6457 40.9313C22.5965 41.1441 23.567 41.2572 24.5413 41.2688L28.9869 41.302C28.895 43.1335 29.453 44.9387 30.5625 46.3988L37.1875 55.0513ZM40.1757 40.4538C40.3063 40.6209 40.4771 40.7521 40.672 40.8355C40.867 40.9189 41.0799 40.9516 41.2909 40.9306C41.5019 40.9097 41.7042 40.8357 41.879 40.7157C42.0538 40.5956 42.1954 40.4333 42.2907 40.2438C43.1345 38.5366 44.4424 37.1018 46.0644 36.1038C48.2611 34.7605 50.8911 34.316 53.4072 34.8628C55.9233 35.4095 58.1317 36.9055 59.5728 39.0393C61.0138 41.173 61.5766 43.7803 61.144 46.3186C60.7113 48.8568 59.3166 51.1304 57.25 52.6663C52.885 55.9163 46.5582 54.9426 43.145 50.4895L36.5138 41.8332C35.7995 40.9022 34.8823 40.1463 33.832 39.6228C32.7817 39.0994 31.626 38.8223 30.4525 38.8126C29.6669 38.8045 24.4988 38.7545 24.5619 38.7676C22.9827 38.7606 21.4228 38.4198 19.9847 37.7674C18.5465 37.1151 17.2625 36.1661 16.2169 34.9826C15.3863 34.0313 14.6069 33.0813 13.8994 32.1576C8.73701 25.4014 5.20866 17.5418 3.59066 9.19446L3.25003 7.42946L3.62941 7.13946L3.64066 7.15446L3.64566 7.16133V7.16446L3.66566 7.19008L3.68128 7.21071L3.70316 7.24008L3.74816 7.29821L3.80628 7.37383L3.81753 7.38883L3.83753 7.41508L3.85128 7.43321L3.85503 7.43758L17.6019 25.3788C18.3246 26.3173 19.2296 27.0999 20.2623 27.6799C21.2951 28.2599 22.4344 28.6252 23.6119 28.7538C24.2925 28.8282 31.7494 29.532 31.8119 29.5376L32.2407 30.1001C32.2438 30.1045 32.2482 30.107 32.2513 30.1113L40.1757 40.4538ZM71.7594 20.097C71.6838 20.1677 71.5842 20.207 71.4807 20.207C71.3772 20.207 71.2775 20.1677 71.2019 20.097L59.9907 8.89071C59.7562 8.65637 59.4384 8.52472 59.1069 8.52472C58.7755 8.52472 58.4576 8.65637 58.2232 8.89071C46.2282 20.882 36.0663 31.0245 36.0663 31.0245C35.9988 30.9363 34.175 28.507 34.27 28.6313L33.875 27.932L58.5625 3.24071L71.7863 19.5782C71.8463 19.6528 71.8769 19.7468 71.8722 19.8425C71.8674 19.9381 71.8278 20.0287 71.7607 20.097H71.7594Z" fill="#FF6900"/>
<path d="M5.78491 5.84082L5.82804 5.8977L5.80554 5.86832L5.78491 5.84082Z" fill="#FF6900"/>
<path d="M5.80566 5.86816L5.82816 5.89754L5.83754 5.90941L5.80566 5.86816Z" fill="#FF6900"/>
<path d="M5.64002 5.65205L5.65814 5.6758L5.66689 5.68705L5.70439 5.73518L5.71002 5.74268L5.61377 5.61768L5.64002 5.65205Z" fill="#FF6900"/>
<path d="M3.71572 7.25323L3.70385 7.23823L3.68197 7.20886L3.67822 7.20386L3.71572 7.25323Z" fill="#FF6900"/>
<path d="M3.83811 7.41321L3.81812 7.38696L3.82999 7.40259L3.83811 7.41321Z" fill="#FF6900"/>
<path d="M3.81562 7.38375L3.80687 7.37187L3.79688 7.35938L3.81562 7.38375Z" fill="#FF6900"/>
<path d="M3.75008 7.29641L3.70508 7.23828L3.71695 7.25328L3.75008 7.29641Z" fill="#FF6900"/>
<path d="M3.63867 7.15259L3.63992 7.15446L3.64367 7.15946L3.63867 7.15259Z" fill="#FF6900"/>
<path d="M3.67824 7.20395L3.66637 7.18769L3.65137 7.16895L3.67824 7.20395Z" fill="#FF6900"/>
<path d="M3.85564 7.4376L3.85189 7.43322L3.84814 7.42822L3.85564 7.4376Z" fill="#FF6900"/>
<path d="M3.68188 7.20875L3.66626 7.1875L3.67813 7.20313L3.68188 7.20875Z" fill="#FF6900"/>
<path d="M47.465 39.6876C46.4835 40.4391 45.7469 41.4647 45.3484 42.6349C44.9498 43.805 44.9072 45.0671 45.226 46.2614C45.5447 47.4558 46.2104 48.5288 47.139 49.3448C48.0675 50.1607 49.2172 50.683 50.4426 50.8456C51.668 51.0082 52.9141 50.8038 54.0233 50.2581C55.1325 49.7125 56.055 48.8502 56.6742 47.7803C57.2933 46.7104 57.5813 45.4809 57.5017 44.2473C57.422 43.0138 56.9784 41.8315 56.2269 40.8501C55.2191 39.534 53.7298 38.6722 52.0867 38.4542C50.4435 38.2362 48.7811 38.6799 47.465 39.6876ZM53.5469 47.6251C52.9581 48.0761 52.2488 48.3424 51.5087 48.3904C50.7686 48.4383 50.0308 48.2657 49.3888 47.8943C48.7468 47.523 48.2293 46.9696 47.9018 46.3042C47.5743 45.6388 47.4514 44.8911 47.5488 44.1559C47.6462 43.4206 47.9594 42.7308 48.4488 42.1735C48.9383 41.6163 49.5819 41.2167 50.2985 41.0252C51.015 40.8338 51.7723 40.8592 52.4744 41.0981C53.1765 41.337 53.792 41.7788 54.2431 42.3676C54.8467 43.1576 55.1124 44.1547 54.9818 45.1402C54.8513 46.1258 54.3353 47.0194 53.5469 47.6251Z" fill="#FF6900"/>
<path d="M25.6357 56.4151C24.6545 57.1669 23.9183 58.1928 23.5201 59.363C23.122 60.5333 23.0797 61.7953 23.3988 62.9895C23.7179 64.1838 24.384 65.2566 25.3127 66.0723C26.2415 66.888 27.3913 67.4099 28.6168 67.5722C29.8422 67.7344 31.0882 67.5296 32.1973 66.9837C33.3063 66.4377 34.2286 65.5752 34.8474 64.5051C35.4662 63.4351 35.7539 62.2055 35.6739 60.972C35.594 59.7384 35.15 58.5563 34.3982 57.5751C33.8991 56.9236 33.2764 56.3767 32.5659 55.9658C31.8554 55.5549 31.0709 55.288 30.2572 55.1803C29.4436 55.0726 28.6166 55.1262 27.8237 55.338C27.0307 55.5499 26.2873 55.9159 25.6357 56.4151ZM31.7182 64.3526C31.1295 64.8037 30.4203 65.0701 29.6802 65.1182C28.94 65.1662 28.2023 64.9937 27.5602 64.6224C26.9181 64.2511 26.4006 63.6978 26.073 63.0324C25.7454 62.367 25.6224 61.6194 25.7197 60.8841C25.817 60.1489 26.1301 59.459 26.6195 58.9017C27.1089 58.3443 27.7526 57.9447 28.4691 57.7532C29.1856 57.5617 29.9429 57.587 30.645 57.8258C31.3472 58.0647 31.9627 58.5064 32.4139 59.0951C33.0174 59.8852 33.2831 60.8823 33.1527 61.8679C33.0223 62.8535 32.5065 63.7466 31.7182 64.3526Z" fill="#FF6900"/>
<path d="M24.0062 31.6806C23.6138 31.9814 23.3193 32.3918 23.16 32.8599C23.0008 33.328 22.984 33.8328 23.1116 34.3105C23.2393 34.7882 23.5057 35.2173 23.8773 35.5435C24.2488 35.8698 24.7088 36.0786 25.1989 36.1434C25.6891 36.2083 26.1875 36.1263 26.6311 35.9079C27.0747 35.6895 27.4436 35.3445 27.6911 34.9164C27.9386 34.4884 28.0536 33.9965 28.0216 33.5031C27.9896 33.0097 27.812 32.5369 27.5112 32.1444C27.1073 31.619 26.5116 31.2751 25.8546 31.1881C25.1976 31.1012 24.5329 31.2783 24.0062 31.6806Z" fill="#FF6900"/>
</svg>
