<svg width="76" height="76" viewBox="0 0 76 76" fill="none" xmlns="http://www.w3.org/2000/svg">
<path d="M25.5 56.75H23V59.25H25.5V56.75Z" fill="#FF6900"/>
<path d="M71.75 68H69.25V34.125C70.6599 33.8331 71.9264 33.0651 72.8369 31.9497C73.7473 30.8344 74.2463 29.4398 74.25 28C74.2525 27.9331 74.2483 27.8661 74.2375 27.8L72.075 14.8875C71.9355 14.0107 71.4872 13.2127 70.811 12.6374C70.1348 12.062 69.2753 11.7473 68.3875 11.75H59.25V4.25C59.247 3.25635 58.851 2.30425 58.1484 1.60163C57.4458 0.899009 56.4936 0.502968 55.5 0.5H20.5C19.5064 0.502968 18.5542 0.899009 17.8516 1.60163C17.149 2.30425 16.753 3.25635 16.75 4.25V11.75H7.6125C6.72469 11.7473 5.86516 12.062 5.18898 12.6374C4.51281 13.2127 4.06452 14.0107 3.925 14.8875L1.7625 27.8C1.75171 27.8661 1.74753 27.9331 1.75 28C1.75369 29.4398 2.25266 30.8344 3.16314 31.9497C4.07361 33.0651 5.34013 33.8331 6.75 34.125V68H4.25C3.25544 68 2.30161 68.3951 1.59835 69.0984C0.895088 69.8016 0.5 70.7554 0.5 71.75C0.5 72.7446 0.895088 73.6984 1.59835 74.4016C2.30161 75.1049 3.25544 75.5 4.25 75.5H71.75C72.7446 75.5 73.6984 75.1049 74.4016 74.4016C75.1049 73.6984 75.5 72.7446 75.5 71.75C75.5 70.7554 75.1049 69.8016 74.4016 69.0984C73.6984 68.3951 72.7446 68 71.75 68ZM64.25 14.25H68.3875C68.6836 14.2493 68.9701 14.3549 69.1949 14.5476C69.4197 14.7403 69.5679 15.0073 69.6125 15.3L71.75 28.1C71.7367 29.0946 71.3289 30.0431 70.6163 30.737C69.9037 31.4309 68.9446 31.8133 67.95 31.8C66.9554 31.7867 66.0069 31.3789 65.313 30.6663C64.6191 29.9537 64.2367 28.9946 64.25 28V14.25ZM59.25 24.25V14.25H61.75V28C61.75 28.9946 61.3549 29.9484 60.6516 30.6517C59.9484 31.3549 58.9946 31.75 58 31.75C57.0054 31.75 56.0516 31.3549 55.3484 30.6517C54.6451 29.9484 54.25 28.9946 54.25 28H55.5C56.4936 27.997 57.4458 27.601 58.1484 26.8984C58.851 26.1958 59.247 25.2436 59.25 24.25ZM19.25 4.25C19.25 3.91848 19.3817 3.60054 19.6161 3.36612C19.8505 3.1317 20.1685 3 20.5 3H55.5C55.8315 3 56.1495 3.1317 56.3839 3.36612C56.6183 3.60054 56.75 3.91848 56.75 4.25V24.25C56.75 24.5815 56.6183 24.8995 56.3839 25.1339C56.1495 25.3683 55.8315 25.5 55.5 25.5H20.5C20.1685 25.5 19.8505 25.3683 19.6161 25.1339C19.3817 24.8995 19.25 24.5815 19.25 24.25V4.25ZM51.75 28C51.75 28.9946 51.3549 29.9484 50.6516 30.6517C49.9484 31.3549 48.9946 31.75 48 31.75C47.0054 31.75 46.0516 31.3549 45.3484 30.6517C44.6451 29.9484 44.25 28.9946 44.25 28H51.75ZM41.75 28C41.75 28.9946 41.3549 29.9484 40.6516 30.6517C39.9484 31.3549 38.9946 31.75 38 31.75C37.0054 31.75 36.0516 31.3549 35.3484 30.6517C34.6451 29.9484 34.25 28.9946 34.25 28H41.75ZM31.75 28C31.75 28.9946 31.3549 29.9484 30.6517 30.6517C29.9484 31.3549 28.9946 31.75 28 31.75C27.0054 31.75 26.0516 31.3549 25.3483 30.6517C24.6451 29.9484 24.25 28.9946 24.25 28H31.75ZM14.25 14.25H16.75V24.25C16.753 25.2436 17.149 26.1958 17.8516 26.8984C18.5542 27.601 19.5064 27.997 20.5 28H21.75C21.75 28.9946 21.3549 29.9484 20.6517 30.6517C19.9484 31.3549 18.9946 31.75 18 31.75C17.0054 31.75 16.0516 31.3549 15.3483 30.6517C14.6451 29.9484 14.25 28.9946 14.25 28V14.25ZM13 31.75C13.5822 32.5262 14.3371 33.1562 15.2049 33.5902C16.0728 34.0241 17.0297 34.25 18 34.25C18.9703 34.25 19.9272 34.0241 20.7951 33.5902C21.6629 33.1562 22.4178 32.5262 23 31.75C23.5822 32.5262 24.3371 33.1562 25.2049 33.5902C26.0728 34.0241 27.0297 34.25 28 34.25C28.9703 34.25 29.9272 34.0241 30.7951 33.5902C31.6629 33.1562 32.4178 32.5262 33 31.75C33.5822 32.5262 34.3371 33.1562 35.2049 33.5902C36.0728 34.0241 37.0297 34.25 38 34.25C38.9703 34.25 39.9272 34.0241 40.7951 33.5902C41.6629 33.1562 42.4178 32.5262 43 31.75C43.5822 32.5262 44.3371 33.1562 45.2049 33.5902C46.0728 34.0241 47.0297 34.25 48 34.25C48.9703 34.25 49.9272 34.0241 50.7951 33.5902C51.6629 33.1562 52.4178 32.5262 53 31.75C53.5822 32.5262 54.3371 33.1562 55.2049 33.5902C56.0728 34.0241 57.0297 34.25 58 34.25C58.9703 34.25 59.9272 34.0241 60.7951 33.5902C61.6629 33.1562 62.4178 32.5262 63 31.75C63.9189 32.9697 65.2531 33.8102 66.75 34.1125V68H29.25V51.75C29.25 49.4294 28.3281 47.2038 26.6872 45.5628C25.0462 43.9219 22.8206 43 20.5 43C18.1794 43 15.9538 43.9219 14.3128 45.5628C12.6719 47.2038 11.75 49.4294 11.75 51.75V68H9.25V34.1125C10.7469 33.8102 12.081 32.9697 13 31.75ZM26.75 51.75V68H14.25V51.75C14.25 50.0924 14.9085 48.5027 16.0806 47.3306C17.2527 46.1585 18.8424 45.5 20.5 45.5C22.1576 45.5 23.7473 46.1585 24.9194 47.3306C26.0915 48.5027 26.75 50.0924 26.75 51.75ZM4.25 28.1L6.3875 15.3C6.43211 15.0073 6.58029 14.7403 6.8051 14.5476C7.02991 14.3549 7.31641 14.2493 7.6125 14.25H11.75V28C11.7633 28.9946 11.3809 29.9537 10.687 30.6663C9.99312 31.3789 9.04456 31.7867 8.05 31.8C7.05544 31.8133 6.09634 31.4309 5.3837 30.737C4.67107 30.0431 4.26326 29.0946 4.25 28.1ZM71.75 73H4.25C3.91848 73 3.60054 72.8683 3.36612 72.6339C3.1317 72.3995 3 72.0815 3 71.75C3 71.4185 3.1317 71.1005 3.36612 70.8661C3.60054 70.6317 3.91848 70.5 4.25 70.5H71.75C72.0815 70.5 72.3995 70.6317 72.6339 70.8661C72.8683 71.1005 73 71.4185 73 71.75C73 72.0815 72.8683 72.3995 72.6339 72.6339C72.3995 72.8683 72.0815 73 71.75 73Z" fill="#FF6900"/>
<path d="M50.8249 8.63752C50.6854 7.76074 50.2371 6.96269 49.561 6.38737C48.8848 5.81204 48.0253 5.49733 47.1374 5.50002H44.2499C44.2374 5.50002 44.2249 5.51252 44.1999 5.51252C44.0591 5.51312 43.9195 5.5385 43.7874 5.58752L37.9999 7.90002L32.2374 5.60002L32.2124 5.58752C32.0807 5.53742 31.9409 5.512 31.7999 5.51252C31.7874 5.51252 31.7624 5.50002 31.7499 5.50002H28.8624C27.9746 5.49733 27.1151 5.81204 26.4389 6.38737C25.7627 6.96269 25.3145 7.76074 25.1749 8.63752L24.2624 14.05C24.2334 14.2291 24.2437 14.4123 24.2926 14.5869C24.3415 14.7616 24.4278 14.9235 24.5455 15.0615C24.6633 15.1994 24.8096 15.3101 24.9744 15.3859C25.1393 15.4616 25.3186 15.5005 25.4999 15.5H30.4999V21.75C30.4999 22.0815 30.6316 22.3995 30.8661 22.6339C31.1005 22.8683 31.4184 23 31.7499 23H44.2499C44.5815 23 44.8994 22.8683 45.1338 22.6339C45.3682 22.3995 45.4999 22.0815 45.4999 21.75V15.5H50.4999C50.6813 15.5005 50.8606 15.4616 51.0254 15.3859C51.1903 15.3101 51.3366 15.1994 51.4544 15.0615C51.5721 14.9235 51.6584 14.7616 51.7073 14.5869C51.7562 14.4123 51.7665 14.2291 51.7374 14.05L50.8249 8.63752ZM30.4999 13H26.9749L27.6374 9.05002C27.682 8.75731 27.8302 8.49033 28.055 8.29763C28.2799 8.10494 28.5664 7.99933 28.8624 8.00002H30.4999V13ZM42.9999 20.5H32.9999V8.60002L37.5374 10.4125C37.8355 10.525 38.1644 10.525 38.4624 10.4125L42.9999 8.60002V20.5ZM45.4999 13V8.00002H47.1374C47.4335 7.99933 47.72 8.10494 47.9448 8.29763C48.1697 8.49033 48.3178 8.75731 48.3624 9.05002L49.0249 13H45.4999Z" fill="#FF6900"/>
<path d="M60.5 38H35.5C34.5064 38.003 33.5542 38.399 32.8516 39.1016C32.149 39.8042 31.753 40.7564 31.75 41.75V61.75C31.753 62.7436 32.149 63.6958 32.8516 64.3984C33.5542 65.101 34.5064 65.497 35.5 65.5H60.5C61.4936 65.497 62.4458 65.101 63.1484 64.3984C63.851 63.6958 64.247 62.7436 64.25 61.75V41.75C64.247 40.7564 63.851 39.8042 63.1484 39.1016C62.4458 38.399 61.4936 38.003 60.5 38ZM61.75 61.75C61.75 62.0815 61.6183 62.3995 61.3839 62.6339C61.1495 62.8683 60.8315 63 60.5 63H35.5C35.1685 63 34.8505 62.8683 34.6161 62.6339C34.3817 62.3995 34.25 62.0815 34.25 61.75V41.75C34.25 41.4185 34.3817 41.1005 34.6161 40.8661C34.8505 40.6317 35.1685 40.5 35.5 40.5H60.5C60.8315 40.5 61.1495 40.6317 61.3839 40.8661C61.6183 41.1005 61.75 41.4185 61.75 41.75V61.75Z" fill="#FF6900"/>
<path d="M58.3249 46.1375C58.1854 45.2607 57.7371 44.4627 57.061 43.8874C56.3848 43.312 55.5253 42.9973 54.6374 43H52.9999C52.9874 43 52.9749 43.0125 52.9499 43.0125C52.8213 43.0132 52.694 43.0386 52.5749 43.0875C52.5453 43.0942 52.5161 43.1025 52.4874 43.1125C52.4749 43.125 52.4499 43.125 52.4374 43.1375L47.9999 45.35L43.5624 43.1375C43.5499 43.125 43.5249 43.125 43.5124 43.1125C43.4838 43.1025 43.4546 43.0942 43.4249 43.0875C43.3059 43.0386 43.1786 43.0132 43.0499 43.0125C43.0374 43.0125 43.0124 43 42.9999 43H41.3624C40.4746 42.9973 39.6151 43.312 38.9389 43.8874C38.2627 44.4627 37.8145 45.2607 37.6749 46.1375L36.7624 51.55C36.7334 51.7291 36.7437 51.9123 36.7926 52.0869C36.8415 52.2616 36.9278 52.4235 37.0455 52.5615C37.1633 52.6994 37.3096 52.8101 37.4744 52.8859C37.6393 52.9616 37.8186 53.0005 37.9999 53H41.7499V59.25C41.7499 59.5815 41.8816 59.8995 42.1161 60.1339C42.3505 60.3683 42.6684 60.5 42.9999 60.5H52.9999C53.3315 60.5 53.6494 60.3683 53.8838 60.1339C54.1182 59.8995 54.2499 59.5815 54.2499 59.25V53H57.9999C58.1813 53.0005 58.3606 52.9616 58.5254 52.8859C58.6903 52.8101 58.8366 52.6994 58.9544 52.5615C59.0721 52.4235 59.1584 52.2616 59.2073 52.0869C59.2562 51.9123 59.2665 51.7291 59.2374 51.55L58.3249 46.1375ZM41.7499 50.5H39.4749L40.1374 46.55C40.182 46.2573 40.3302 45.9903 40.555 45.7976C40.7799 45.6049 41.0664 45.4993 41.3624 45.5H41.7499V50.5ZM51.7499 58H44.2499V46.275L47.4374 47.8625C47.6106 47.9549 47.8037 48.0032 47.9999 48.0032C48.1961 48.0032 48.3893 47.9549 48.5624 47.8625L51.7499 46.275V58ZM54.2499 50.5V45.5H54.6374C54.9335 45.4993 55.22 45.6049 55.4448 45.7976C55.6697 45.9903 55.8178 46.2573 55.8624 46.55L56.5249 50.5H54.2499Z" fill="#FF6900"/>
</svg>
