<svg width="61" height="59" viewBox="0 0 61 59" fill="none" xmlns="http://www.w3.org/2000/svg">
<path d="M57.6193 20.7612C56.8275 18.3096 57.1651 14.6296 55.1072 11.7881C53.0333 8.92431 49.4261 8.11033 47.3893 6.62064C45.3739 5.14666 43.4989 1.93912 40.1088 0.832869C36.8143 -0.242209 33.4454 1.21666 30.8333 1.21666C28.2215 1.21666 24.8528 -0.242561 21.5577 0.832752C18.1682 1.93877 16.2917 5.14701 14.2776 6.62029C12.243 8.10822 8.63313 8.92443 6.5595 11.7878C4.50345 14.6269 4.83755 18.3154 4.04724 20.7611C3.29513 23.0888 0.833252 25.8824 0.833252 29.5002C0.833252 33.1203 3.29231 35.9031 4.04724 38.2392C4.83895 40.6908 4.50146 44.3708 6.55927 47.2123C8.63313 50.0762 12.2402 50.8901 14.2772 52.3799C16.2923 53.8536 18.1676 57.0614 21.5577 58.1676C24.85 59.2419 28.2242 57.7838 30.8333 57.7838C33.4387 57.7838 36.8207 59.2404 40.1088 58.1677C43.4984 57.0617 45.3738 53.8541 47.3889 52.3801C49.4235 50.8922 53.0334 50.076 55.107 47.2126C57.1632 44.3734 56.8288 40.6853 57.6193 38.2394C58.3714 35.9115 60.8333 33.1179 60.8333 29.5002C60.8333 25.8804 58.3748 23.0984 57.6193 20.7612ZM53.159 36.7979C52.2361 39.6544 52.4779 42.8512 51.3107 44.4629C50.1278 46.0962 47.0201 46.8422 44.6221 48.5963C42.2504 50.3308 40.5881 53.0803 38.6547 53.7111C36.8256 54.3081 33.8449 53.096 30.8334 53.096C27.7999 53.096 24.8498 54.3107 23.0119 53.7111C21.0788 53.0803 19.4188 50.3326 17.0445 48.5962C14.6607 46.8528 11.5353 46.0914 10.3558 44.4627C9.19235 42.8563 9.42497 39.6374 8.50774 36.7981C7.60868 34.0162 5.52075 31.6074 5.52075 29.5002C5.52075 27.391 7.60681 24.9905 8.50751 22.2025C9.43036 19.3461 9.1886 16.1492 10.3558 14.5375C11.538 12.9053 14.648 12.1568 17.0445 10.4042C19.4238 8.66404 21.0756 5.92103 23.0117 5.28928C24.8392 4.69303 27.8297 5.90439 30.8331 5.90439C33.8722 5.90439 36.8149 4.68892 38.6546 5.28928C40.5875 5.91998 42.2488 8.66873 44.6221 10.4043C47.0056 12.1477 50.1312 12.909 51.3107 14.5376C52.4744 16.1444 52.2405 19.36 53.1588 22.2022V22.2024C54.0578 24.9843 56.1458 27.3931 56.1458 29.5002C56.1458 31.6095 54.0597 34.0099 53.159 36.7979ZM41.6313 21.9774C42.5466 22.8927 42.5466 24.3767 41.6313 25.2919L29.9001 37.0231C28.9847 37.9384 27.5007 37.9383 26.5854 37.0231L20.0354 30.473C19.12 29.5576 19.1199 28.0737 20.0352 27.1585C20.9506 26.2432 22.4348 26.2431 23.3498 27.1585L28.2427 32.0513L38.3165 21.9775C39.2318 21.0621 40.7159 21.0621 41.6313 21.9774Z" fill="#FF6900"/>
</svg>
