<svg width="61" height="60" viewBox="0 0 61 60" fill="none" xmlns="http://www.w3.org/2000/svg">
<g clip-path="url(#clip0_2_10943)">
<path d="M55.5147 31.102V3.7797C55.5147 2.80495 54.7244 2.01471 53.7497 2.01471H6.46186C5.48711 2.01471 4.69687 2.80495 4.69687 3.7797V33.2801C3.84544 33.4041 3.01307 33.7346 2.27671 34.2813C-0.0446004 35.9273 -0.59363 39.611 1.3508 41.8828L9.30067 51.5204C14.2217 57.2798 19.4492 57.9855 27.2206 57.9855C33.8896 57.9855 36.8711 58.0149 42.6832 56.6906L48.3427 55.3369C49.2604 56.6184 50.7172 57.4486 52.355 57.4486H55.143C57.9131 57.4486 60.1667 55.0744 60.1667 52.1562V36.3785C60.1668 33.592 58.1117 31.3032 55.5147 31.102ZM47.5814 34.7327L45.2297 33.5382C41.3631 31.5865 36.8926 31.5143 32.9649 33.3403C31.8934 33.7618 29.5562 35.1759 28.3438 35.1286H20.1835C17.4767 35.1286 15.2745 37.3307 15.2745 40.0376V41.3248C15.2593 41.3088 15.2434 41.2936 15.2284 41.2774L9.40104 34.952C9.04839 34.5692 8.65221 34.249 8.22696 33.992V16.481H22.6708V22.951C22.6708 23.9258 23.4611 24.716 24.4358 24.716H35.573C36.5478 24.716 37.338 23.9258 37.338 22.951V16.481H51.9848V31.1019C49.9226 31.2612 48.203 32.7365 47.5814 34.7327ZM26.2007 16.481H33.8079V21.186H26.2007V16.481ZM51.9847 12.9511H37.338V5.54469H51.9848V12.9511H51.9847ZM33.808 5.54469V12.9512H26.2008V5.54469H33.808ZM22.6707 5.54469V12.9512H8.22685V5.54469H22.6707ZM41.864 53.2568C36.4949 54.4866 33.2613 54.4368 27.2839 54.4368C19.9886 54.4368 16.4637 54.3189 12.0239 49.2741L4.07406 39.6364C2.69125 37.8358 5.19589 35.7101 6.80485 37.3436L12.6323 43.6691C14.1724 45.2941 16.1105 46.1885 18.4992 46.2411H34.6557C35.6304 46.2411 36.4207 45.4509 36.4207 44.4761C36.4207 43.5014 35.6304 42.7111 34.6557 42.7111H18.8043V40.0374C18.8043 39.2771 19.4229 38.6584 20.1834 38.6584H28.3437C30.1821 38.79 32.8356 37.255 34.4531 36.5411C37.3947 35.1733 40.743 35.2275 43.6351 36.6872L47.3315 38.5647V51.949L41.864 53.2568ZM56.6369 52.1561C56.6369 53.1279 55.9668 53.9185 55.1431 53.9185H52.3551C51.5315 53.9185 50.8615 53.1279 50.8615 52.1561V36.3785C50.8615 35.4067 51.5316 34.616 52.3551 34.616H55.1431C55.9668 34.616 56.6369 35.4065 56.6369 36.3785V52.1561Z" fill="#FF6900"/>
</g>
<defs>
<clipPath id="clip0_2_10943">
<rect width="60" height="60" fill="white" transform="translate(0.166748)"/>
</clipPath>
</defs>
</svg>
